<?xml version="1.0" standalone="no"?>
<!DOCTYPE svg PUBLIC "-//W3C//DTD SVG 20010904//EN"
 "http://www.w3.org/TR/2001/REC-SVG-20010904/DTD/svg10.dtd">
<svg version="1.0" xmlns="http://www.w3.org/2000/svg"
 width="824.000000pt" height="824.000000pt" viewBox="0 0 824.000000 824.000000"
 preserveAspectRatio="xMidYMid meet">
<metadata>
Created by potrace 1.14, written by Peter Selinger 2001-2017
</metadata>
<g transform="translate(0.000000,824.000000) scale(0.100000,-0.100000)"
fill="#000000" stroke="none">
<path d="M4029 8236 c-2 -2 -17 -7 -34 -9 -111 -20 -223 -79 -307 -160 -113
-109 -156 -185 -195 -342 -3 -11 -6 -61 -8 -111 -2 -88 14 -184 46 -259 7 -16
13 -32 13 -35 5 -20 85 -130 124 -168 61 -61 78 -73 151 -114 l60 -33 0 -90
c-1 -49 0 -94 1 -100 1 -5 2 -19 1 -30 -1 -20 -6 -20 -443 -20 -489 1 -509 -1
-570 -58 -52 -49 -71 -92 -71 -162 -1 -67 17 -110 64 -156 63 -61 59 -61 567
-61 l462 0 -2 -260 c-3 -245 -4 -261 -22 -272 -11 -6 -29 -18 -40 -28 -12 -9
-57 -45 -101 -79 -125 -99 -163 -137 -146 -148 8 -5 23 -8 34 -5 11 2 45 6 76
10 64 7 154 38 176 61 9 8 19 13 22 10 16 -17 -5 -1329 -30 -1859 -1 -21 1
-21 -34 -7 -15 6 -37 13 -48 15 -11 2 -31 6 -45 9 -14 3 -45 10 -70 15 -25 5
-94 21 -155 35 -60 13 -118 25 -129 25 -18 0 -18 -1 -1 -27 48 -73 168 -163
237 -177 211 -43 238 -50 238 -62 0 -17 6 -17 -82 2 -98 22 -158 28 -158 15 0
-18 125 -133 176 -160 46 -26 49 -30 48 -67 -1 -51 -19 -273 -29 -374 -3 -30
-8 -74 -10 -97 -8 -71 -15 -124 -31 -228 -21 -140 -22 -143 -28 -163 -3 -9 -7
-28 -10 -42 -24 -126 -71 -235 -120 -277 -39 -35 -211 -123 -238 -123 -9 0
-20 -5 -23 -10 -4 -6 -11 -8 -16 -5 -5 4 -15 3 -21 -2 -7 -4 -15 -8 -18 -8
-150 -23 -220 -23 -338 0 -83 16 -261 98 -335 155 -253 193 -451 490 -542 810
-7 25 -16 53 -20 63 -6 13 -2 17 17 17 14 0 28 -3 32 -7 3 -4 12 -8 19 -9 7
-2 66 -19 132 -39 66 -20 127 -38 136 -40 9 -2 39 -11 65 -20 27 -9 56 -18 64
-20 8 -2 23 -6 33 -10 9 -4 17 -4 17 -1 0 6 -326 415 -422 531 -26 31 -200
248 -233 290 -16 21 -64 80 -105 131 -41 51 -83 103 -92 115 -10 13 -19 21
-21 18 -6 -6 -97 -244 -97 -252 0 -3 -11 -31 -25 -61 -14 -30 -25 -57 -25 -60
0 -3 -25 -70 -55 -148 -31 -79 -76 -197 -102 -263 -25 -66 -52 -133 -58 -150
-7 -16 -32 -79 -55 -140 -22 -60 -45 -119 -50 -130 -4 -11 -15 -40 -24 -63
l-17 -44 30 21 c16 12 34 21 39 21 6 0 12 4 14 8 2 4 41 33 88 63 47 30 122
79 167 108 45 29 85 54 88 54 4 1 13 -16 20 -38 56 -180 80 -252 86 -265 5 -8
20 -43 33 -77 29 -69 109 -224 137 -265 11 -14 19 -28 19 -31 0 -8 75 -119
126 -189 73 -100 135 -170 259 -294 242 -243 496 -426 813 -587 78 -39 144
-79 147 -87 9 -29 78 -92 131 -121 166 -91 212 -115 278 -144 70 -30 66 -30
66 -5 0 21 -26 69 -44 82 -6 4 -8 9 -5 12 5 5 111 -47 219 -106 30 -17 91 -50
135 -73 l80 -43 80 45 c160 90 527 273 548 273 8 0 91 34 187 77 67 30 294
144 326 164 l32 19 45 -67 c59 -90 89 -151 122 -248 15 -44 32 -91 37 -105
l10 -25 13 26 c8 15 17 40 20 58 3 17 8 46 12 64 3 17 6 60 5 94 0 67 -28 129
-97 220 -37 48 -41 58 -26 68 5 3 18 -8 27 -25 10 -16 22 -30 25 -30 4 0 10
-8 13 -17 3 -10 18 -31 33 -48 l28 -30 5 35 c3 19 2 60 -2 90 -5 30 -10 67
-12 83 -2 15 -1 27 2 27 4 0 42 26 85 59 328 248 617 590 784 928 79 159 125
282 163 425 l23 88 36 -22 c20 -12 114 -73 210 -136 96 -63 180 -116 187 -119
13 -5 0 36 -37 122 -19 43 -71 181 -73 190 -1 6 -5 15 -9 21 -3 6 -20 49 -37
95 -17 46 -34 93 -39 104 -5 11 -23 58 -41 105 -18 47 -36 94 -41 105 -4 11
-27 70 -50 130 -22 61 -47 124 -54 140 -7 17 -34 86 -60 155 -26 69 -49 127
-51 128 -3 4 -7 -1 -109 -128 -42 -52 -84 -104 -93 -115 -9 -11 -91 -112 -182
-225 -91 -113 -238 -297 -327 -408 -90 -111 -163 -203 -163 -206 0 -2 33 5 72
16 40 11 77 21 83 23 5 1 21 7 35 12 14 6 41 14 60 19 43 10 42 9 60 17 44 18
185 53 188 47 2 -4 -13 -57 -33 -116 -41 -120 -128 -307 -181 -386 -19 -27
-34 -54 -34 -58 0 -5 -3 -10 -7 -12 -5 -1 -28 -30 -53 -63 -84 -113 -238 -256
-335 -311 -176 -99 -173 -99 -229 -7 -28 46 -60 86 -79 98 -34 20 -135 73
-142 75 -3 0 -25 9 -51 20 -25 11 -48 20 -51 20 -3 0 -19 7 -36 15 -52 24
-150 55 -156 50 -7 -7 22 -60 57 -105 48 -62 98 -105 152 -130 90 -42 243
-121 264 -136 l20 -14 -20 0 c-12 0 -73 26 -137 58 -109 56 -147 69 -147 51 0
-10 38 -80 51 -94 26 -27 1 -28 -101 -3 -111 27 -293 133 -329 191 -21 34 -56
132 -65 182 -3 17 -12 59 -19 95 -8 36 -17 85 -21 110 -3 25 -9 65 -12 90 l-7
44 24 -15 c19 -13 77 -36 109 -44 3 -1 12 -4 20 -8 8 -3 65 -20 125 -38 61
-17 115 -35 120 -39 9 -6 95 -30 110 -30 9 0 -34 70 -60 97 -11 12 -36 38 -55
59 -31 32 -117 81 -160 89 -8 2 -35 9 -60 16 -25 7 -49 13 -55 15 -83 18 -146
46 -133 59 2 3 67 -13 144 -34 76 -21 143 -35 148 -31 10 10 0 23 -84 110 -73
75 -112 97 -208 116 -19 4 -25 11 -18 23 4 6 18 6 35 1 53 -15 54 3 4 59 -53
59 -50 49 -58 191 -4 58 -8 132 -11 165 -4 66 -13 240 -19 380 -16 357 -20
525 -31 1095 -10 567 -10 610 1 611 11 1 57 7 90 12 39 6 75 19 75 28 0 5 4 9
10 9 5 0 45 24 87 53 43 30 101 69 128 88 83 57 135 101 129 111 -6 10 -145 4
-208 -7 -40 -8 -75 -27 -192 -106 -116 -78 -137 -89 -128 -65 3 8 45 41 92 73
48 31 93 63 100 70 21 20 -4 25 -102 21 -52 -2 -87 1 -89 7 -2 6 -3 107 -2
225 l0 215 455 1 c250 1 468 4 484 7 32 7 71 30 102 61 104 103 65 293 -72
353 -35 15 -90 17 -499 19 -253 1 -463 2 -467 3 -5 0 -6 11 -4 24 3 12 5 65 5
117 l1 95 42 20 c186 88 314 255 355 461 16 81 16 82 50 89 19 3 55 15 80 26
25 11 53 21 62 22 9 1 21 6 27 10 14 8 175 47 218 53 46 6 67 15 60 26 -5 8
-64 39 -84 43 -3 1 -32 9 -65 19 -80 24 -148 17 -258 -27 -48 -19 -89 -31 -92
-27 -8 12 19 29 75 49 28 10 58 25 67 33 13 14 10 17 -35 27 -43 11 -84 17
-130 20 -7 1 -18 13 -24 29 -22 52 -98 150 -154 201 -75 67 -185 123 -285 147
-30 7 -224 16 -230 10z m176 -365 c56 -15 123 -66 158 -122 117 -182 -30 -436
-250 -431 -123 2 -244 101 -270 220 -31 142 51 286 189 332 57 19 108 19 173
1z"/>
<path d="M5196 7662 c-2 -1 -15 -5 -30 -7 -46 -8 -81 -16 -171 -39 -9 -3 -23
-8 -65 -24 -8 -3 -17 -6 -20 -7 -3 -2 -15 -6 -27 -10 -51 -16 -23 -34 98 -64
87 -21 144 -22 225 -3 50 11 266 7 310 -6 19 -6 37 -6 45 -1 20 14 -69 92
-151 132 -55 27 -76 32 -138 32 -40 0 -75 -1 -76 -3z"/>
<path d="M5206 7479 c-16 -4 -33 -6 -38 -3 -10 7 -10 -7 1 -24 19 -30 174
-102 246 -114 33 -5 74 -14 90 -20 64 -23 165 -71 165 -79 0 -5 5 -9 11 -9 6
0 30 -14 55 -30 24 -17 45 -27 45 -23 4 30 1 43 -20 83 -74 142 -116 180 -233
209 -76 20 -269 26 -322 10z"/>
<path d="M5405 7301 c-3 -5 2 -16 10 -24 8 -9 15 -18 15 -22 0 -3 23 -34 51
-70 35 -45 79 -84 147 -129 53 -36 110 -77 126 -91 16 -14 32 -25 35 -25 3 0
17 -10 31 -23 41 -37 82 -67 92 -67 22 0 -30 162 -73 224 -43 63 -232 184
-337 216 -72 22 -88 24 -97 11z"/>
<path d="M5558 7049 c-2 -7 12 -51 31 -98 37 -89 65 -123 194 -239 54 -49 75
-71 171 -187 39 -47 56 -47 50 -2 -18 132 -28 177 -55 228 -17 35 -101 114
-184 175 -22 16 -42 31 -45 35 -8 9 -129 89 -144 95 -8 3 -16 0 -18 -7z"/>
<path d="M5674 6733 c4 -16 8 -39 11 -52 13 -70 41 -141 73 -189 109 -159 136
-221 148 -346 5 -58 8 -63 28 -47 44 37 77 238 52 313 -19 54 -96 156 -185
247 -103 104 -137 124 -127 74z"/>
<path d="M5729 6449 c-1 -8 -3 -34 -6 -59 -6 -59 -6 -147 -1 -240 6 -90 -7
-144 -62 -258 -22 -47 -38 -87 -36 -90 10 -10 95 40 149 89 86 76 102 113 100
229 -2 120 -2 122 -62 239 -36 73 -80 120 -82 90z"/>
<path d="M5632 6148 c-60 -63 -83 -92 -106 -133 -57 -102 -102 -160 -198 -256
-32 -32 -58 -62 -58 -68 0 -16 37 -13 120 10 81 22 139 55 183 103 25 28 112
186 102 186 -2 0 2 15 9 33 16 39 21 163 8 171 -6 3 -33 -18 -60 -46z"/>
<path d="M5390 6002 c-87 -32 -121 -54 -205 -131 -84 -77 -126 -112 -194 -163
-33 -24 -64 -51 -71 -61 -10 -17 -7 -18 57 -16 91 3 180 25 223 54 105 71 290
285 290 335 0 15 -17 12 -100 -18z"/>
<path d="M5107 5934 c-1 -1 -20 -5 -41 -8 -21 -4 -51 -9 -65 -13 -32 -7 -141
-73 -141 -84 0 -5 -6 -9 -14 -9 -8 0 -16 -4 -18 -8 -3 -8 -96 -75 -188 -135
-61 -41 -76 -60 -53 -68 37 -13 194 3 247 25 73 30 366 268 366 296 0 9 -84
13 -93 4z"/>
<path d="M3756 5842 c-2 -2 -26 -5 -52 -8 -87 -8 -145 -44 -263 -161 -95 -95
-171 -190 -171 -215 0 -10 33 -5 75 12 17 7 41 14 55 17 45 8 105 43 160 94
30 28 109 94 175 146 66 53 122 98 124 100 2 1 1 6 -2 10 -7 7 -95 12 -101 5z"/>
<path d="M3459 5796 c-2 -2 -21 -7 -42 -10 -54 -9 -147 -43 -171 -63 -93 -78
-183 -234 -206 -354 -12 -60 -2 -81 27 -58 109 87 146 124 188 186 58 84 71
99 167 196 49 48 88 91 88 95 0 8 -44 14 -51 8z"/>
<path d="M3086 5670 c-127 -64 -199 -139 -213 -224 -22 -134 -17 -218 19 -319
22 -62 28 -70 44 -59 17 12 65 176 69 237 7 104 47 210 121 322 19 28 34 54
34 57 0 12 -36 5 -74 -14z"/>
<path d="M2801 5431 c-29 -31 -89 -142 -96 -179 -17 -93 5 -177 81 -302 54
-90 110 -155 142 -165 23 -7 23 -7 18 68 -7 95 -12 118 -46 192 -56 121 -65
162 -65 293 0 67 -1 122 -3 122 -2 0 -16 -13 -31 -29z"/>
<path d="M2663 5049 c-7 -26 -8 -66 -3 -192 1 -10 10 -38 20 -63 33 -76 137
-160 280 -227 92 -42 130 -52 130 -35 0 26 -98 165 -140 199 -93 75 -119 101
-163 166 -24 38 -57 94 -72 126 -15 31 -31 57 -36 57 -5 0 -12 -14 -16 -31z"/>
<path d="M2704 4665 c12 -66 115 -235 144 -235 6 0 12 -4 12 -9 0 -15 388
-151 431 -151 18 0 8 27 -21 61 -90 102 -159 159 -195 159 -8 0 -15 5 -15 12
0 6 -3 9 -6 5 -9 -9 -100 29 -189 80 -44 25 -82 49 -85 52 -8 10 -67 51 -74
51 -4 0 -4 -11 -2 -25z"/>
<path d="M2890 4355 c0 -8 5 -15 12 -15 6 0 8 -3 5 -6 -7 -8 40 -71 99 -130
53 -54 108 -77 284 -120 189 -45 234 -54 242 -46 5 5 -21 40 -65 85 -70 72
-129 110 -190 121 -26 5 -156 46 -289 92 -78 26 -98 30 -98 19z"/>
<path d="M3120 4086 c0 -15 101 -122 151 -159 32 -24 104 -50 179 -63 14 -3
52 -12 85 -20 33 -8 76 -17 95 -20 19 -3 38 -8 42 -10 14 -9 108 -15 108 -7 0
11 -77 90 -131 134 -38 31 -103 58 -184 75 -11 3 -40 9 -65 14 -25 6 -56 13
-70 16 -14 3 -54 14 -90 24 -94 27 -120 31 -120 16z"/>
<path d="M4567 2643 c13 -34 103 -133 150 -166 21 -14 81 -42 133 -61 53 -19
145 -55 204 -80 60 -26 116 -46 124 -44 11 2 2 22 -33 73 -85 125 -110 145
-260 200 -38 14 -77 28 -85 30 -8 3 -59 18 -114 35 -115 35 -128 36 -119 13z"/>
<path d="M5282 1248 c-11 -91 -9 -230 4 -273 30 -100 41 -179 43 -299 1 -55 4
-103 7 -108 14 -22 102 127 124 211 7 26 9 65 5 95 -19 137 -128 386 -169 386
-7 0 -13 -6 -14 -12z"/>
<path d="M3349 997 c26 -67 72 -138 124 -189 32 -32 62 -58 68 -58 6 0 39 -13
73 -29 82 -39 243 -98 284 -104 47 -8 44 4 -21 87 -56 72 -99 106 -189 150
-52 25 -97 46 -100 46 -3 0 -50 24 -104 54 -54 30 -109 57 -122 61 -20 6 -21
4 -13 -18z"/>
<path d="M5206 888 c-46 -99 -47 -103 -51 -203 -4 -88 -13 -192 -20 -215 -2
-8 -6 -31 -9 -50 -4 -19 -10 -53 -16 -75 -15 -62 -14 -68 12 -54 41 22 119
114 149 176 29 59 31 70 31 180 0 141 -7 197 -38 306 -9 31 -21 18 -58 -65z"/>
<path d="M3530 707 c0 -16 42 -79 97 -144 46 -55 122 -98 192 -110 14 -2 32
-8 40 -13 9 -4 44 -13 79 -20 34 -6 74 -13 89 -16 52 -10 124 -11 129 -2 6 9
-35 51 -109 112 -44 36 -94 61 -138 70 -13 2 -51 14 -84 26 -33 12 -64 23 -70
24 -5 1 -14 4 -20 8 -12 7 -193 78 -200 78 -3 0 -5 -6 -5 -13z"/>
<path d="M5079 663 c-73 -80 -107 -138 -127 -215 -11 -41 -28 -97 -37 -124
-16 -46 -73 -163 -85 -174 -13 -11 -48 -79 -43 -83 11 -12 119 41 189 93 51
38 111 158 119 240 2 14 4 25 5 25 2 0 10 46 15 85 2 19 4 35 5 35 1 0 2 35 4
78 1 42 -1 77 -4 77 -4 0 -22 -17 -41 -37z"/>
<path d="M4827 406 c-71 -56 -78 -63 -150 -162 -24 -33 -64 -76 -88 -96 -51
-41 -133 -88 -154 -88 -8 0 -15 -5 -15 -11 0 -5 -4 -8 -9 -5 -5 3 -14 -1 -20
-8 -19 -22 4 -30 104 -34 173 -7 262 54 360 247 30 61 59 147 58 174 0 9 4 17
9 17 5 0 6 5 3 10 -11 18 -29 10 -98 -44z"/>
<path d="M3750 425 c0 -24 132 -149 182 -173 74 -34 251 -45 356 -21 26 6 55
12 66 14 10 3 30 12 43 21 l25 16 -23 12 c-35 17 -129 53 -164 62 -44 11 -53
12 -140 18 -98 7 -128 12 -230 38 -113 28 -115 29 -115 13z"/>
<path d="M4560 289 c-99 -22 -93 -20 -145 -43 -80 -36 -142 -48 -264 -51 -68
-2 -126 -6 -129 -9 -11 -12 31 -44 111 -85 129 -66 214 -62 356 15 115 63 233
199 167 193 -6 -1 -49 -10 -96 -20z"/>
</g>
</svg>
