<svg xmlns="http://www.w3.org/2000/svg" viewBox="0 0 100.68 23.83"><defs><style>.cls-1{fill:#e6e6e6;}</style></defs><title>Asset 3</title><g id="Layer_2" data-name="Layer 2"><g id="Vector_Graphics" data-name="Vector Graphics"><path class="cls-1" d="M8.3,22.76H8l-.44,0H6l-.43,0H5.36l-.15,0L5,22.89,4.7,23,4.55,23a.34.34,0,0,1-.16-.11.29.29,0,0,1-.1-.16.72.72,0,0,1,.13-.27.72.72,0,0,0,.13-.27.61.61,0,0,0-.14-.4,1.07,1.07,0,0,0-.35-.25,1.11,1.11,0,0,0-.45-.12l-.4,0c-.08.34-.15.63-.2.87a1.7,1.7,0,0,1-.2.59.79.79,0,0,1-.37.33,1.83,1.83,0,0,1-.7.11l-.33,0H1.07c0-.07,0-.19,0-.37s0-.37-.07-.58S.92,22,.89,21.78s-.07-.29-.09-.36,0-.06-.1-.12a1.23,1.23,0,0,1-.16-.15L.27,21A1,1,0,0,1,0,20.88v-.27c0-.3,0-.69.08-1.16s.07-.93.09-1.36.06-1,.1-1.63H2.41c.09,0,.18-.06.27-.19a3.42,3.42,0,0,0,.25-.47c.08-.18.15-.35.2-.5A.91.91,0,0,0,3.21,15a.86.86,0,0,0,.46.44c.21.1.43.19.64.27a4.38,4.38,0,0,1,.57.26.35.35,0,0,1,.21.37l.31,0,.49.07a3.44,3.44,0,0,1,.5.09l.31.08a.48.48,0,0,1,.13.12l.13.15h.11c1.71,0,3.39-.05,5-.15s3.32-.15,5-.15H18.4l2,0h3.21a.26.26,0,0,0,.16.21,1,1,0,0,0,.3.08,1.1,1.1,0,0,0,.31,0l.2,0a3.66,3.66,0,0,0,.88-.08,2.09,2.09,0,0,0,.83-.48V16.2a1.29,1.29,0,0,0-.32-.78,5.22,5.22,0,0,1-.48-.69.7.7,0,0,1,0-.14.11.11,0,0,1,0-.07s0,0,0-.07l.8.54.27-.26V11A14.86,14.86,0,0,0,28,11a9,9,0,0,0,1.45-.25l.27.27c.09.53.16,1,.22,1.36s.11.76.17,1.15.11.72.15,1v.28l.27,2.14h1.6a.74.74,0,0,1,.33-.58,1.27,1.27,0,0,1,.61-.23V11.25s0-.06.16-.13l.24-.14a2.33,2.33,0,0,1,.47-.15l.47-.12V4l.4,6.7h2.68c0,.09,0,.26.09.52a6.31,6.31,0,0,0,.21.8,3,3,0,0,0,.39.75.75.75,0,0,0,.65.34h5.35l.27.53H47V12.32H49.8l.27.27a2.21,2.21,0,0,1,.24-.6,4.19,4.19,0,0,1,.44-.6,2.6,2.6,0,0,1,.57-.48,1.14,1.14,0,0,1,.63-.2h3.48V4.28s-.09-.12-.26-.2a6,6,0,0,0-.59-.24l-.64-.23-.39-.13a1.52,1.52,0,0,1,.4-.67,1.53,1.53,0,0,0,.41-.67c-.06.29,0,.45.17.5A2,2,0,0,0,55,2.7h.41a.29.29,0,0,0,.28-.28h1.93a2.06,2.06,0,0,1-.09.59c-.07.19-.14.41-.22.64a7.19,7.19,0,0,0-.21.74,3.65,3.65,0,0,0-.1.84V5.6c0,.16,0,.32,0,.48s0,.3,0,.43v.18s0,.07,0,.15a2.6,2.6,0,0,0,.1.25l.09.26a.54.54,0,0,1,0,.15.34.34,0,0,1-.11.16c-.07.07-.12.1-.16.1V9.64a2,2,0,0,1,.48,0,1.43,1.43,0,0,1,.5.18.83.83,0,0,1,.33.34.75.75,0,0,1,0,.54h4.82s.09,0,.15-.11a.92.92,0,0,0,.12-.16c0-.09.08-.27.15-.53l.12-.54h.06l.07,0,.14,0,.28.26a2.18,2.18,0,0,1,.25.28s-.09,0-.16.1a.34.34,0,0,0-.11.16s0,.07,0,.15a2.6,2.6,0,0,0,.1.25l.09.26a.54.54,0,0,1,0,.15s0,0,0,0,0,0,0,0a1.25,1.25,0,0,1,.29.13c.15.09.24.12.28.09a1.44,1.44,0,0,0,.18-.39.92.92,0,0,0,.08-.42.68.68,0,0,1,0,.27c0,.14,0,.23,0,.27a.8.8,0,0,1-.14.51,1.67,1.67,0,0,1-.31.28,1.33,1.33,0,0,0-.3.28.83.83,0,0,0-.14.54,5.52,5.52,0,0,0,.07.74c0,.29.1.58.16.87s.12.59.19.87l.15.73a1.6,1.6,0,0,0,.58.22,4.41,4.41,0,0,0,.73.08,4.33,4.33,0,0,0,.72,0H69c.37,0,.75,0,1.12,0A11.35,11.35,0,0,0,71.22,16c.4,0,.84-.1,1.34-.17V9.37q0,.3,0,1c0,.48,0,1,.07,1.54s0,1.06.09,1.54.06.81.08,1a2.15,2.15,0,0,0,0,.4c0,.15,0,.29.08.44s0,.26.08.36,0,.15.07.15H76l.8-.54,11-.53a3.8,3.8,0,0,0,1.29-.31,5.25,5.25,0,0,0,1.18-.72,4.58,4.58,0,0,0,.91-1,3.41,3.41,0,0,0,.51-1.18V13l8.43-2.82.54-.26a3.76,3.76,0,0,1-.19.89,1.13,1.13,0,0,1-.62.71L92.11,15v.41h2.14L90,21.69a1.54,1.54,0,0,1-1,.71,9.36,9.36,0,0,1-1.43.09l-76,1.34H9.11l-.34-.54A2.08,2.08,0,0,0,8.3,22.76ZM56.5,3.48c-.14,0-.22.09-.22.27s.08.26.22.26.21-.08.21-.26S56.64,3.48,56.5,3.48Zm0,5.62c-.14,0-.22.09-.22.27s.08.27.22.27.21-.09.21-.27S56.64,9.1,56.5,9.1Zm0-4.55c-.09,0-.14,0-.14.14s0,.16.14.13.13-.08.13-.13S56.59,4.59,56.5,4.55ZM56.5,8s-.07,0-.1.07a.52.52,0,0,0,0,.4c0,.06.06.09.1.07s.13-.13.13-.27S56.59,8.07,56.5,8Zm0-2.68c0-.07-.07,0-.1.22s0,.45,0,.72,0,.51,0,.72.06.29.1.22a1.39,1.39,0,0,0,.08-.36c0-.17,0-.36,0-.55s0-.41,0-.59A1.6,1.6,0,0,0,56.5,5.35ZM54.09,0h.27V1.61Zm-.8,3.21c0,.09-.09.14-.14.14S53,3.3,53,3.21s0-.13.13-.13S53.32,3.12,53.29,3.21Zm-.81-.53c.14,0,.22.08.22.27s-.08.26-.22.26-.21-.09-.21-.26S52.34,2.68,52.48,2.68Zm-.8-.27q.21,0,.21.27T51.68,3c-.14,0-.22-.09-.22-.27S51.54,2.41,51.68,2.41ZM50.34,12.59c-.14,0-.21.08-.21.26s.07.27.21.27.21-.09.21-.27S50.48,12.59,50.34,12.59ZM38.29,13.65a.7.7,0,0,0,.05.45c.07.2.15.32.22.35l.45,0a10.9,10.9,0,0,0,1.17-.06l1.1-.12,1.12-.11c.38,0,.8,0,1.25,0a.57.57,0,0,0,.32-.54Zm.54,2a.81.81,0,0,0,.48.55,1.79,1.79,0,0,0,.72.15l.4,0a.31.31,0,0,0,.27-.27.31.31,0,0,0,.27.27l.4,0a1,1,0,0,0,.55-.15,1,1,0,0,1,.52-.15.51.51,0,0,1,.28.06l.2.13a.85.85,0,0,0,.27.13,1.38,1.38,0,0,0,.46.06V14.73a2.17,2.17,0,0,1-.11.26,3.21,3.21,0,0,1-.19.31,1.14,1.14,0,0,1-.24.25.39.39,0,0,1-.27.11Zm3.48.4c-.14,0-.22.09-.22.27s.08.27.22.27.21-.09.21-.27S42.45,16.06,42.31,16.06ZM25.17,13.92q.21,0,.21.27c0,.18-.07.26-.21.26s-.21-.08-.21-.26S25,13.92,25.17,13.92Zm-.27-.27c.14,0,.22.09.22.27s-.08.27-.22.27-.21-.09-.21-.27S24.76,13.65,24.9,13.65ZM24.07,13a.25.25,0,0,1,0-.07s0-.05,0-.07a3.2,3.2,0,0,1,.28.25,2,2,0,0,1,.25.29.66.66,0,0,1,0,.13.2.2,0,0,1,0,.07l0,.06a2,2,0,0,1-.28-.25,2.07,2.07,0,0,1-.25-.28A.87.87,0,0,1,24.07,13Zm-.51-.67.27.27h-.27Zm-.26-.54q.21,0,.21.27t-.21.27c-.15,0-.22-.09-.22-.27S23.15,11.78,23.3,11.78Zm-.57-.4a.25.25,0,0,1,0-.07.18.18,0,0,0,0-.06s.08.05.15.12l.12.14,0,.13a.17.17,0,0,1,0,.07.2.2,0,0,0,0,.07.87.87,0,0,1-.27-.27A.66.66,0,0,1,22.73,11.38Zm-.24-.67c.15,0,.22.09.22.27s-.07.27-.22.27-.21-.09-.21-.27S22.35,10.71,22.49,10.71Zm-.27-.27c.15,0,.22.09.22.27s-.07.27-.22.27-.21-.09-.21-.27S22.08,10.44,22.22,10.44ZM21.15,9.37H22v1.07l-.67-.27V11Zm.54,0q-.21,0-.21.27t.21.27q.21,0,.21-.27T21.69,9.37ZM5.62,21.69v.53H8.3A.62.62,0,0,0,8,21.83a1.71,1.71,0,0,0-.62-.14,5.56,5.56,0,0,0-.71,0l-.6,0Zm-.53,0c-.09,0-.14,0-.14.16s0,.14.14.11.13-.09.13-.14S5.18,21.72,5.09,21.69ZM2.14,18.21l.54.53v-.53Z"/></g></g></svg>