<svg xmlns="http://www.w3.org/2000/svg" viewBox="0 0 102.57 32.75"><defs><style>.cls-1{fill:#e6e6e6;}</style></defs><title>Asset 2</title><g id="Layer_2" data-name="Layer 2"><g id="Vector_Graphics" data-name="Vector Graphics"><path class="cls-1" d="M22.81,31.37H21.17l-3,.06q-1.74,0-3.69.12c-1.29.05-2.5.13-3.61.24s-2,.24-2.8.39-1.18.34-1.27.56a1.16,1.16,0,0,1-.15-.21,3,3,0,0,1-.18-.32c0-.12-.1-.23-.14-.34a.58.58,0,0,1-.07-.22,2.68,2.68,0,0,1,.11-.55,4.74,4.74,0,0,1,.16-.53h.13l.14,0a2.53,2.53,0,0,1,.28.26,1.66,1.66,0,0,1,.26.29V30q0-.08-.3-.15a5.46,5.46,0,0,0-.67-.09l-.77,0-.56,0-.33,0H4.36a2.34,2.34,0,0,0-.38.95c-.07.38-.13.69-.17.94H2.06V29.5a.82.82,0,0,1-.8-.28,2.88,2.88,0,0,1-.57-1,7,7,0,0,1-.36-1.35c-.1-.5-.16-1-.21-1.43S0,24.59,0,24.24s0-.58,0-.69,0-.13,0-.27S0,23,0,23l.27.54H16.53a.64.64,0,0,1,.12-.15l.15-.12.37-.08c.17,0,.36-.07.57-.1l.58-.07.38,0v-.54l-3-.54,2.2-.18q1.23-.09,2.37-.09h.37a1.35,1.35,0,0,1,.36.07.57.57,0,0,1,.29.2.61.61,0,0,1,.12.39.7.7,0,0,1,0,.14,5.16,5.16,0,0,1-.54.54h2.71a.7.7,0,0,0,.08.2,2.54,2.54,0,0,0,.21.39c.09.15.17.22.25.22h1.78a1.81,1.81,0,0,0-.11-.77.88.88,0,0,0-.24-.33,1.62,1.62,0,0,0-.24-.14.21.21,0,0,1-.11-.22,1.32,1.32,0,0,1,.12-.64,1,1,0,0,1,.3-.32l.36-.26a.83.83,0,0,0,.3-.43h6.49V9.21l-.54-.41h2.57V5.15l.41,3.93H33.31V20.57l.54.54h4.33c-.06-.28,0-.45.17-.51a1.6,1.6,0,0,1,1,0q.26.09.18.51h1.35c-.11-.36-.07-.6.1-.71a1,1,0,0,1,1.16,0c.17.11.2.35.09.71h4.6L47,21a1.65,1.65,0,0,1,.32-.18l.34-.15a1,1,0,0,1,.22-.07l.15,0,.25.1.26.09.15,0h.13A7,7,0,0,0,50,20.75a6.36,6.36,0,0,0,1.12-.29A10,10,0,0,0,52.14,20a5.43,5.43,0,0,0,.92-.54V19c0-.11-.06-.31-.11-.6s-.11-.59-.16-.9-.11-.62-.17-.89-.09-.48-.1-.59a2,2,0,0,1,.59-1.08,2.93,2.93,0,0,1,1-.61A4.76,4.76,0,0,1,55.3,14c.42,0,.8-.06,1.17-.06a1,1,0,0,0-.07-.31,1.11,1.11,0,0,1-.08-.34.27.27,0,0,1,.08-.25c.06-.07.21-.09.45-.07,0,.05,0,.14.06.27a4,4,0,0,1,.08.4c0,.15.06.28.09.41a2.12,2.12,0,0,1,0,.27v.16a.45.45,0,0,1-.09.3l-.19.21c-.06.08-.13.16-.19.25a.69.69,0,0,0-.09.38,9.39,9.39,0,0,0,.17,1.81c.12.62.25,1.2.39,1.76a.42.42,0,0,0,.24.26,1.57,1.57,0,0,0,.33,0,.57.57,0,0,0,.5-.19,2,2,0,0,0,.29-.65L63.34,18H60.9a2,2,0,0,0,.08-.29c0-.15.07-.3.1-.45s.05-.3.07-.45,0-.24,0-.3v-.3a1,1,0,0,0-.08-.48,1.37,1.37,0,0,0-.46-.43h1.76V14.08h1.9v1.08c0-.07,0-.19,0-.36s0-.37,0-.57,0-.4,0-.58,0-.31,0-.38c0-.24,0-.59-.08-1.07s-.08-1-.12-1.62-.1-1.25-.17-1.91-.12-1.3-.17-1.91-.11-1.15-.15-1.62-.09-.83-.12-1.07a10.54,10.54,0,0,0-.85-1.14,11.38,11.38,0,0,0-1-1,1.27,1.27,0,0,0,.42-.11,2.07,2.07,0,0,0,.4-.16V1.36l1.51,0s0,0,.07,0,.06,0,0,0a1.17,1.17,0,0,0-.5-.25.42.42,0,0,1-.34-.42.2.2,0,0,1,0-.07.25.25,0,0,0,0-.07,1.1,1.1,0,0,1,.2-.15l.32-.17.35-.15A.82.82,0,0,1,64.42,0a1.77,1.77,0,0,1,.91.15.7.7,0,0,1,.47.69,1.84,1.84,0,0,1,0,.24.43.43,0,0,1-.14.07l-.26.07-.26.07a.37.37,0,0,0-.15.06c-.07.06,0,.19.19.41H66a.74.74,0,0,1-.43.38,2.27,2.27,0,0,1-.65.12,3.42,3.42,0,0,1-.65,0l-.43-.07a2.92,2.92,0,0,1,.07.32c0,.15,0,.32.08.5s0,.34.08.5a1.7,1.7,0,0,1,0,.31s0,.1,0,.19,0,.14,0,.16a1.62,1.62,0,0,0,.49-.08c.16-.06.28,0,.35.27l-.54.27a.57.57,0,0,0,0,.23c0,.14,0,.24,0,.31s0,.11,0,.22a1.35,1.35,0,0,0,0,.34,1.24,1.24,0,0,0,.09.33.28.28,0,0,0,.23.19v1.9c0,.07.07.15.22.24a4.09,4.09,0,0,0,.39.22l.2.08L65,8.94c0,.34,0,.56,0,.65a14.93,14.93,0,0,0,.13,2,11.48,11.48,0,0,0,.43,1.95,1.82,1.82,0,0,1,.11-.42,2.29,2.29,0,0,1,.16-.39s0,0,.06,0l.08,0,.08,0s.05,0,.05,0a.58.58,0,0,1,.07.14,2.29,2.29,0,0,1,.08.28l.07.25a.34.34,0,0,0,0,.14s0,0,.06,0h.08a.19.19,0,0,0,.14-.05c0-.07,0-.21.1-.42s.11-.43.17-.65S67,12,67,11.82l.11-.45a.53.53,0,0,1,.12-.15.64.64,0,0,1,.15-.12l.13,0a.68.68,0,0,1,.56.33,3,3,0,0,1,.36.79,6,6,0,0,1,.2.87c0,.27.08.48.1.6h6.36v.95a2,2,0,0,1,.35,0l.53.08.52.08.36.07a1.7,1.7,0,0,1,.33.12q.21.11.21.15V17.6q-.37-.09-.48,0a.22.22,0,0,0-.06.23,1.16,1.16,0,0,0,.11.31.72.72,0,0,1,.08.24,2.41,2.41,0,0,1,.6.06.76.76,0,0,0,.37,0,.35.35,0,0,0,.18-.26,5.66,5.66,0,0,0,0-.75,3.23,3.23,0,0,1,1.19.23,2.28,2.28,0,0,1,.94.75h2.71q.07.24.12.42c0,.12.05.24.08.36s0,.23.07.3,0,.24.08.45.07.43.1.66,0,.45.06.65,0,.33,0,.41h1a3,3,0,0,0,.52-.08,1.32,1.32,0,0,0,.43-.21.49.49,0,0,0,.21-.4H88.5l-1.35-.68a1.62,1.62,0,0,1,0-.21q0-.53.3-.57a3.77,3.77,0,0,1,.73-.06c.72,0,1.39,0,2,.08l2.13.22a1.7,1.7,0,0,0-.31,0l-.5.08L91,20a1.82,1.82,0,0,0-.32.06l-.47.15a1.43,1.43,0,0,0-.34.12s0,.15.09.33a1.28,1.28,0,0,1,.13.32q.41,0,.72,0l.56.05.52.06.55,0h.14l-.27-.27a13.85,13.85,0,0,1,2-.27c.68,0,1.36,0,2,0l-.27-.27a25.81,25.81,0,0,1,2.8-.48,12.71,12.71,0,0,1,2.88-.06l-.27-.27.27-.12a1,1,0,0,0,.27-.15,1,1,0,0,0,.19-.32c.09-.2.17-.38.23-.55a1.25,1.25,0,0,1,.12-.27v2.76l-1.89,9.74c-.08.36-.23.58-.46.65a4.52,4.52,0,0,1-.9.17l-1.17.08-1.8.09-1.8.07c-.57,0-1,0-1.18,0a.77.77,0,0,1-.47.26l-.5,0h-.65l-3.84,0-5.52,0-6.78,0-7.62,0-8,0-8,0-7.62,0-6.77,0-5.52,0-3.84,0L27,31.53l-1-.09-.88-.06h-2.3ZM.3,23.82c-.15,0-.22.09-.22.27s.07.27.22.27.21-.09.21-.27S.44,23.82.3,23.82Zm4.6.54c-.15,0-.22.09-.22.27s.07.27.22.27.21-.09.21-.27S5,24.36,4.9,24.36Zm1.89-.27a.56.56,0,0,0,.41.13.54.54,0,0,0,.4-.13s0-.06-.08-.08a1.51,1.51,0,0,0-.32,0,1.55,1.55,0,0,0-.33,0C6.78,24,6.75,24.05,6.79,24.09Zm0,.54a.56.56,0,0,0,.41.14.54.54,0,0,0,.4-.14s0-.06-.08-.08a1.51,1.51,0,0,0-.32,0,1.55,1.55,0,0,0-.33,0C6.78,24.57,6.75,24.59,6.79,24.63Zm1.35-.54a.79.79,0,0,0,.54.13.83.83,0,0,0,.55-.13s0-.06-.13-.08a2.42,2.42,0,0,0-.42,0,2.37,2.37,0,0,0-.41,0C8.15,24,8.11,24.05,8.14,24.09Zm0,.54a.78.78,0,0,0,.54.14.83.83,0,0,0,.55-.14s0-.06-.13-.08a2.42,2.42,0,0,0-.42,0,2.37,2.37,0,0,0-.41,0C8.15,24.57,8.11,24.59,8.14,24.63Zm6.23,5.95-6-.54H8.14v1.19h.91l1.39,0,1.4,0h.9a2.91,2.91,0,0,0,.46-.05l.53-.08a4.12,4.12,0,0,0,.45-.08c.12,0,.19-.05.19-.07ZM10,24.63a1.29,1.29,0,0,0,.67.14,1.3,1.3,0,0,0,.68-.14s0-.06-.16-.08a4.41,4.41,0,0,0-.52,0,4.05,4.05,0,0,0-.52,0C10,24.57,10,24.59,10,24.63Zm0-.54a.67.67,0,0,0,.31.09,3.14,3.14,0,0,0,1,0,.71.71,0,0,0,.31-.09c.06,0,0-.06-.19-.08a5.72,5.72,0,0,0-.62,0,5.59,5.59,0,0,0-.62,0C10.05,24,10,24.05,10,24.09Zm2.16,0a1.34,1.34,0,0,0,.68.13,1.28,1.28,0,0,0,.67-.13c.06,0,0-.06-.16-.08a4.12,4.12,0,0,0-.51,0,4.22,4.22,0,0,0-.53,0C12.2,24,12.15,24.05,12.2,24.09Zm3.25,6.76a2,2,0,0,0,.49.1,5.64,5.64,0,0,0,.73,0,5.85,5.85,0,0,0,.73,0,2.25,2.25,0,0,0,.49-.1c.1,0,0-.06-.26-.08l-1,0H16a2,2,0,0,0-.47,0C15.4,30.81,15.38,30.83,15.45,30.85Zm0-6.76c0,.09.08.13.13.13s.12,0,.14-.13,0-.14-.14-.14S15.41,24,15.45,24.09Zm0,.54c0,.09.08.14.13.14s.12-.05.14-.14,0-.13-.14-.13S15.41,24.54,15.45,24.63Zm.81-.27c-.15,0-.22.09-.22.27s.07.27.22.27.22-.09.22-.27S16.4,24.36,16.26,24.36Zm10.28-3.25a.53.53,0,0,0,.41.14.5.5,0,0,0,.4-.14s0-.06-.08-.08A1.57,1.57,0,0,0,27,21a1.62,1.62,0,0,0-.33,0C26.53,21.05,26.51,21.08,26.54,21.11Zm1.36-.27c-.15,0-.22.09-.22.27s.07.27.22.27.21-.09.21-.27S28,20.84,27.9,20.84Zm1.08.27a1.19,1.19,0,0,0,.67.14,1.23,1.23,0,0,0,.68-.14c.05,0,0-.06-.16-.08a4.35,4.35,0,0,0-.52,0,4.1,4.1,0,0,0-.52,0C29,21.05,28.92,21.08,29,21.11Zm1.89,0c0,.1.08.14.14.14s.11,0,.13-.14,0-.13-.13-.13S30.84,21,30.87,21.11ZM32,20.84q-.21,0-.21.27t.21.27c.15,0,.22-.09.22-.27S32.1,20.84,32,20.84Zm.54.54c-.14,0-.21.1-.21.28s.07.27.21.27.22-.09.22-.27S32.64,21.38,32.49,21.38Zm0-.27c0,.1.08.14.14.14s.12,0,.13-.14,0-.13-.13-.13S32.46,21,32.49,21.11Zm.82-.27c-.15,0-.22.09-.22.27s.07.27.22.27.21-.09.21-.27S33.45,20.84,33.31,20.84Zm.54.82c0,.09.12.13.27.13s.23,0,.27-.13,0-.07-.07-.08a.64.64,0,0,0-.2,0,.76.76,0,0,0-.21,0C33.85,21.59,33.83,21.62,33.85,21.66Zm1.08.54c0,.09.13.13.27.13s.23,0,.27-.13,0-.07-.07-.08a.68.68,0,0,0-.4,0C34.93,22.13,34.91,22.16,34.93,22.2Zm.81-.82c-.14,0-.21.1-.21.28s.07.27.21.27.22-.09.22-.27S35.88,21.38,35.74,21.38Zm.54.28c0,.09.08.13.14.13s.11,0,.13-.13,0-.14-.13-.14S36.25,21.57,36.28,21.66Zm0,.54c0,.09.08.13.14.13s.11,0,.13-.13,0-.14-.13-.14S36.25,22.11,36.28,22.2Zm5.95-.82c-.14,0-.21.1-.21.28s.07.27.21.27.22-.09.22-.27S42.38,21.38,42.23,21.38Zm2.71.28c0,.09.13.13.27.13s.24,0,.27-.13,0-.07-.07-.08a.68.68,0,0,0-.4,0C44.94,21.59,44.92,21.62,44.94,21.66Zm.27.27c-.14,0-.22.09-.22.27s.08.27.22.27.22-.09.22-.27S45.35,21.93,45.21,21.93Zm.81-.27c0,.09.13.13.27.13s.24,0,.27-.13,0-.07-.06-.08a.71.71,0,0,0-.21,0,.64.64,0,0,0-.2,0C46,21.59,46,21.62,46,21.66ZM59.28,19h-.62a1.47,1.47,0,0,0,.12.58.49.49,0,0,0,.5.29Zm.54,0a.54.54,0,0,0-.13.4.55.55,0,0,0,.13.41s.07,0,.1-.08a1.49,1.49,0,0,0,0-.33,1.47,1.47,0,0,0,0-.32C59.89,18.94,59.86,18.91,59.82,19Zm.81,0h-.27v.81h.27Zm.54,0a.54.54,0,0,0-.13.4.55.55,0,0,0,.13.41s.07,0,.1-.08a1.06,1.06,0,0,0,0-.33,1,1,0,0,0,0-.32C61.24,18.94,61.21,18.91,61.17,19ZM62,19h-.28v.81H62Zm.94-16.86-.2,0-.2,0,.19.24c.07.09.14.2.21.31s.15.21.22.31a2.59,2.59,0,0,0,.19.23.59.59,0,0,0,.12.14.52.52,0,0,0,.15.13V3.26a3,3,0,0,0-.1-.79C63.45,2.22,63.26,2.09,62.93,2.09ZM62.8,18.68h-.27v1.08h.27Zm.54,0a1.11,1.11,0,0,0,0,1.08s.07,0,.09-.12a2.23,2.23,0,0,0,0-.84C63.41,18.68,63.37,18.64,63.34,18.68ZM64.42,3.26c.14,0,.22.09.22.27s-.08.27-.22.27-.21-.09-.21-.27S64.28,3.26,64.42,3.26ZM64.69,3c.09,0,.14,0,.14.13s0,.17-.14.14-.13-.08-.13-.14S64.6,3,64.69,3ZM65,2.45c.15,0,.22.08.22.27S65.11,3,65,3s-.22-.09-.22-.27S64.82,2.45,65,2.45Zm0,4.32c.15,0,.22.09.22.28s-.07.27-.22.27-.22-.09-.22-.27S64.82,6.77,65,6.77Zm.27-4.6c.15,0,.22.09.22.28s-.07.27-.22.27S65,2.62,65,2.45,65.09,2.17,65.23,2.17Zm0,5.41c.15,0,.22.1.22.28s-.07.27-.22.27S65,8,65,7.86,65.09,7.58,65.23,7.58ZM69,14.08c0,.09.08.14.14.14s.09-.05.13-.14,0-.14-.13-.14S69,14,69,14.08Zm0,.54c0,.09.08.13.14.13s.09,0,.13-.13,0-.13-.13-.13S69,14.53,69,14.62Zm.81-.54c.06.09.19.14.41.14s.35-.05.4-.14,0-.06-.09-.08a1.55,1.55,0,0,0-.31,0,1.39,1.39,0,0,0-.3,0C69.85,14,69.81,14,69.83,14.08Zm0,.54c.06.09.19.13.41.13s.35,0,.4-.13,0-.06-.09-.08a1.55,1.55,0,0,0-.31,0,1.39,1.39,0,0,0-.3,0C69.85,14.56,69.81,14.58,69.83,14.62Zm1.35-.54c.06.09.19.14.41.14s.35-.05.41-.14,0-.06-.1-.08a1.55,1.55,0,0,0-.31,0,1.39,1.39,0,0,0-.3,0C71.2,14,71.17,14,71.18,14.08Zm0,.54c.06.09.19.13.41.13s.35,0,.41-.13,0-.06-.1-.08a1.55,1.55,0,0,0-.31,0,1.39,1.39,0,0,0-.3,0C71.2,14.56,71.17,14.58,71.18,14.62Zm1.36,0a1.19,1.19,0,0,0,1.08,0s0-.06-.12-.08a3,3,0,0,0-.84,0C72.54,14.56,72.5,14.58,72.54,14.62Zm0-.54c0,.09.19.14.4.14s.35-.05.41-.14,0-.06-.09-.08a1.73,1.73,0,0,0-.32,0,1.29,1.29,0,0,0-.29,0C72.56,14,72.52,14,72.54,14.08Zm1.62,0a.27.27,0,0,0,.27.14c.15,0,.24-.05.27-.14s0-.06-.06-.08l-.21,0a.64.64,0,0,0-.2,0C74.16,14,74.14,14,74.16,14.08Zm.27.54c0,.09.08.13.14.13s.1,0,.13-.13,0-.13-.13-.13S74.39,14.53,74.43,14.62Zm2.71,4.87c-.15,0-.22.09-.22.27s.07.27.22.27.21-.09.21-.27S77.28,19.49,77.14,19.49Zm0-.27c0,.09.12.13.27.13s.23,0,.27-.13,0-.06-.07-.08a.64.64,0,0,0-.2,0,.76.76,0,0,0-.21,0C77.14,19.16,77.12,19.18,77.14,19.22Zm3-.27c.06.09.19.13.41.13s.35,0,.41-.13,0-.06-.1-.08a1.55,1.55,0,0,0-.31,0,1.39,1.39,0,0,0-.3,0C80.13,18.89,80.1,18.91,80.11,19Zm.27.54c.06.09.19.14.41.14s.35-.05.4-.14,0-.06-.09-.08a1.55,1.55,0,0,0-.31,0,1.39,1.39,0,0,0-.3,0C80.4,19.43,80.37,19.46,80.38,19.49ZM82,18.68c0,.09.19.14.4.14s.35-.05.41-.14,0-.06-.1-.08a1.48,1.48,0,0,0-.31,0,1.29,1.29,0,0,0-.29,0C82,18.62,82,18.64,82,18.68Zm0,.54c0,.09.19.13.4.13s.35,0,.41-.13,0-.06-.1-.08a1.48,1.48,0,0,0-.31,0,1.29,1.29,0,0,0-.29,0C82,19.16,82,19.18,82,19.22Zm10.82,0c.14,0,.22.09.22.27s-.08.27-.22.27-.22-.09-.22-.27S92.69,19.22,92.83,19.22Zm1.62,1.62c0,.09.08.14.14.14s.12-.05.13-.14,0-.13-.13-.13S94.42,20.75,94.45,20.84Zm.81.27c0,.1.08.14.14.14s.12,0,.13-.14,0-.13-.13-.13S95.23,21,95.26,21.11Zm2.17-.54c-.15,0-.22.09-.22.27s.07.27.22.27.22-.09.22-.27S97.57,20.57,97.43,20.57Zm.81-.54c-.14,0-.22.09-.22.27s.08.27.22.27.22-.09.22-.27S98.38,20,98.24,20Z"/></g></g></svg>