<svg id="Layer_1" data-name="Layer 1" xmlns="http://www.w3.org/2000/svg" viewBox="0 0 1200 800"><defs><style>.cls-1{fill:#1a1a1a;}.cls-2{fill:#fff;}</style></defs><title>enemy-flag</title><rect class="cls-1" x="5" y="5" width="1190" height="790"/><path class="cls-2" d="M1215,48V828H35V48H1215m10-10H25V838H1225V38Z" transform="translate(-25 -38)"/><path class="cls-2" d="M855.6,438c0,18.06,12.24,37.65,8.4,54.54-4,17.45-11.48,35.64-19.08,51.37-7.71,16-31.66,21.72-42.63,35.46s-17.77,30.33-31.58,41.35S744.05,644.29,728.06,652c-15.74,7.59-32.37,15.31-49.81,19.28-16.9,3.84-35.19,8.87-53.25,8.87s-37.19-1.34-54.09-5.18c-17.44-4-35.33-11-51.07-18.62a249.33,249.33,0,0,1-46.1-28.69c-13.8-11-21.89-29-32.92-42.8s-19.54-29.06-27.25-45c-7.6-15.74-10.4-32.83-14.36-50.28-3.84-16.89-2.88-33.48-2.88-51.54s-10.45-36.81-6.61-53.7c4-17.44,11.36-34.74,18.95-50.48,7.71-16,23.11-27.41,34.08-41.15s15.86-35,29.67-46,36.4-9,52.4-16.72c15.73-7.59,29-23.22,46.49-27.19,16.89-3.84,35.63-2.53,53.69-2.53s35.57,4.1,52.46,7.94c17.44,4,32.62,12.87,48.36,20.47,16,7.71,35.72,10,49.46,20.92s29.25,22.67,40.27,36.48,7.71,36.78,15.42,52.78c7.6,15.74,24.28,28.28,28.24,45.72C863.05,401.44,855.6,419.94,855.6,438Z" transform="translate(-25 -38)"/><g id="layer2"><path id="path2930" class="cls-1" d="M618.23,232.74c-63.56-.39-126.52,25.49-152.41,87.76-11.17,26.87-.4,76.77,6.95,95.74,11.51,7.36,14.61,21.64,18.56,31.16,5.46,13.17-10.7,42.12-10.39,53.35.42,14.54,2.59,22.57,11.69,23.63s18.49.1,20.19-3.57c1.55-3.36,42.2-4,41.54,14.87-4.45,8.19-2.7,14.09,5.6,14.06,2.15,0,2.53-5,3.29-10.36,1.17-8.32,7.12-7.18,7.3-5a35.49,35.49,0,0,1,.85,10.93c-.28,2.74-3,4.8-2.39,7.94-1.17,4.91,4.23,3.49,7.6,5.46,4.52,2.63,6.67,5.62,11.87,4.78,2.34-.38,1.14-11.14,2.58-15.29,1.36-3.92,5.91-4,6.3.84.31,4-.91,6.9-.11,8.89,3.58,8.82,12.88,5.11,15.81,1.6,1.67-2,1.91-18.45,2.89-19.79,1.81-2.47,4.57,13.1,4,10.42-1.49-7.49,3.9,5,3.9,10.68,0,5.43,20.84,3.42,16.32-6.84-1.86-4.2,4.86,1.09,4.65-.5-.46-3.48.2,4.43,6.68,7.4,12.91,5.93,9-10.51,9.67-17.07,1-10.34,10.36-15.35,10.39,1.49,0,20.12,21.63,8.31,19.27-2.2-.81-3.66-3.14-7.81-1.49-11.17,4.79-9.74,17.44-14.64,28.17-16.29,9-1.39,18.46,9.71,26.75,5.91,7.14-3.28,17.12-6.29,14.51-13.69-12.23-34.66-11.15-46.16-5.88-62.27,7.57-13.84,4.52-22.27,16.55-29.33,27.95-16.42,18.46-80.39,14.09-95.75-20.52-53.15-93.29-87.32-165.33-87.76h0Zm-73.16,160.2c11.78.11,24.15,1.72,34.54,7.72,28.9,16.73,27.39,25.09,14.8,39.27-15.21,17.14-39.32,22-63.81,14.87-32.12-9.36-28.47-60.17,3-61.6,3.71-.17,7.56-.3,11.49-.26Zm152.22,0c4,0,8.16.09,12.4.26,31.46,1.26,35,52.18,2.92,61.54-24.5,7.13-48.54,2.33-63.74-14.8-12.59-14.19-14.11-22.61,14.8-39.34,10.38-6,21.55-7.55,33.62-7.66Zm-73.41,54c3.17.07,5.09-.17,6.81,2.86-.15-.45,16.93,28.76,18.37,32.52,5.37,14-10.6,10.78-13.37,7.14-3.37-4.84-3.17-10.46-11.81-10.51s-8,7.39-11.82,10.77c-2.77,3.64-18.74,6.9-13.37-7.14,1.44-3.76,18.52-33,18.37-32.52,2.1-2.87,3.64-3.19,6.82-3.12Z" transform="translate(-25 -38)"/><path id="path3758" class="cls-1" d="M545.83,557.16c-2.7-5.45-2.45-15.09-4.57-20.29-4.23-10.4-13.57-18.06-12.12,4.71a85.59,85.59,0,0,0,4,21.54c1.94,6.26,1.59,16.69,1.57,23-.07,25.51,4.52,30.14,22.26,30.79l25.22,9.64c24,5.43,22.39,16,41.72,16s17.75-5.77,27.27-7.79c9-.51,17.58-4,22.62-13.35l9.28-10.76c4.51-5.07,11-6.2,17.43-7.42,5.33-4.29,14.57-5.46,10.76-17.06-2.67-8.38-2-25.58-1.86-41.54.21-18.82-9.5-16-12.24-3l-4.45,21.14c-2.87,6.44-7.14,7.78-13,3.34-9-3.75-17.23-5.91-17.43,10.76l-5.94-.74c-2.83.48-3.82-4.88-6.65-5.37-8-2.84-8.35,1.92-9.67,5.74l-7.79.37c-1.85-9-3-5.45-5.56-5.46-2.79,0-1.86,3-2.79,4l-5,.38c-3.26-5.26-12.9-12.53-18.18-1.12l-5.93.74c-2.32-6.5-11.36-9.82-12.61,1.86l-7-.37c-2.07-2.44-.67-7.54-1.88-8.9-3.2-3.63-9.07-1.81-13.33-3.34-4.32,7-6.36.31-14.09-7.42Z" transform="translate(-25 -38)"/></g></svg>