<svg id="Layer_1" data-name="Layer 1" xmlns="http://www.w3.org/2000/svg" viewBox="0 0 356.7 40.37"><defs><style>.cls-1{fill:#fff;}.cls-2{fill:#fbb03b;}</style></defs><title>logo</title><path class="cls-1" d="M175.27,270V231.16h28v11H188.73v6.27H199.8v11H188.73V270Z" transform="translate(-175.27 -230.41)"/><path class="cls-1" d="M231.59,270h-26.1V231.16h13.45v27.9h12.65Z" transform="translate(-175.27 -230.41)"/><path class="cls-1" d="M233.85,270V231.16H263v10.73H247.3v3.3h12.18v10.62H247.3v3.48H263V270Z" transform="translate(-175.27 -230.41)"/><path class="cls-1" d="M265.69,270V231.16h29.12v10.73H279.15v3.3h12.18v10.62H279.15v3.48h15.66V270Z" transform="translate(-175.27 -230.41)"/><path class="cls-1" d="M296.31,242.12v-11h29v11h-7.54V270H304.32v-27.9Z" transform="translate(-175.27 -230.41)"/><path class="cls-2" d="M338.07,270l8.59-38.86H367L375.77,270H362.2l-1.1-4.47h-8.87L351.3,270Zm18.1-28.31L354,255.29h5.74l-2.09-13.58Z" transform="translate(-175.27 -230.41)"/><path class="cls-2" d="M372.64,242.12v-11h29v11H394.1V270H380.65v-27.9Z" transform="translate(-175.27 -230.41)"/><path class="cls-2" d="M402.74,242.12v-11h29v11H424.2V270H410.75v-27.9Z" transform="translate(-175.27 -230.41)"/><path class="cls-2" d="M428.79,270l8.58-38.86h20.36L466.49,270H452.91l-1.1-4.47h-8.87L442,270Zm18.09-28.31-2.2,13.58h5.74l-2.09-13.58Z" transform="translate(-175.27 -230.41)"/><path class="cls-2" d="M495.37,269.27a52.9,52.9,0,0,1-12.59,1.5q-6.43,0-9.91-1.82a10.58,10.58,0,0,1-5-6.12q-1.55-4.29-1.54-12.36,0-11.53,3.57-15.8t13.6-4.26a50.48,50.48,0,0,1,9.86,1.15l2,.41L495,242.35a74.35,74.35,0,0,0-8.79-.58c-2.68,0-4.41.52-5.19,1.54s-1.16,3.14-1.16,6.35a26.79,26.79,0,0,0,.56,6.67,3.74,3.74,0,0,0,1.76,2.47,9.53,9.53,0,0,0,3.95.61l9.05-.35Z" transform="translate(-175.27 -230.41)"/><path class="cls-2" d="M511.38,257.08V270H497.92V231.16h13.46v13.75h2.32l4.35-13.75h13.34L525.18,250,532,270H518.45l-4.69-12.94Z" transform="translate(-175.27 -230.41)"/></svg>