<svg id="Layer_1" data-name="Layer 1" xmlns="http://www.w3.org/2000/svg" viewBox="0 0 1200 800"><defs><style>.cls-1{fill:#2e3192;}.cls-2,.cls-4{fill:#fff;}.cls-3,.cls-5{fill:#1a1a1a;}.cls-4{stroke:#1a1a1a;stroke-miterlimit:10;stroke-width:10.82px;}.cls-5{fill-rule:evenodd;}</style></defs><title>player-flag</title><rect class="cls-1" width="1200" height="800"/><rect class="cls-2" y="333" width="1200" height="136"/><rect class="cls-3" y="351" width="1200" height="103"/><rect class="cls-2" x="44" y="443" width="798" height="136" transform="translate(920 -44) rotate(90)"/><rect class="cls-3" x="44" y="460" width="799" height="103" transform="translate(921 -44) rotate(90)"/><rect class="cls-2" x="245.56" y="309.06" width="405.88" height="405.88" transform="translate(459.4 -279.18) rotate(45)"/><rect class="cls-4" x="261.63" y="323.58" width="375.29" height="375.29" transform="translate(459.08 -279.95) rotate(45)"/><g id="Layer_1-2" data-name="Layer_1"><path class="cls-5" d="M429.14,310.93a32,32,0,0,1,47.65,13.74c3.13.55,6.61.28,9.43,1.91-.9,1.52-3,1.6-4.49,2.36-1.27.67-3.57.8-3.17,2.78,5.06-1.8,10.17-5,15.75-3.68,3.2.93,6.6,1.69,9.39,3.58-.09,1.05-1.29.95-2.05,1.15A74.52,74.52,0,0,0,484,337.64a21.92,21.92,0,0,1-4.77,1.32,32.14,32.14,0,0,1-20.45,28c.07,4-.12,8-.14,12h40.5c2.68,0,5.49-.24,8,.93a11,11,0,0,1,6.31,12,10.83,10.83,0,0,1-10.33,9H458.52c.06,7.52-.14,15,.14,22.56,3.39-.13,6.83-.66,10.21,0a8.87,8.87,0,0,1-2.29,2.2c-2.66,1.76-5.28,3.56-7.94,5.32,0,.4,0,1.22,0,1.63,4-2.64,7.9-5.37,11.88-8,3.51-2.24,7.81-2,11.8-2.38a6.91,6.91,0,0,1,3.24.45,20.5,20.5,0,0,1-2.7,2.4C478,428.56,473,432,468,435.34c-2.77,1.83-6.17,2.18-9.41,2.23.43,39,1,77.95,3.71,116.83a13.43,13.43,0,0,0,.35,2.82c1.47,1.94,3.74,3.29,4.56,5.7a26.38,26.38,0,0,1-4.33-.69c.05.36.17,1.07.23,1.43,2.5.66,5.14,1.07,7.35,2.49s3.89,3.38,5.66,5.25a12.93,12.93,0,0,1,2.79,3.77,2.73,2.73,0,0,1-2.12.06c-4.39-1.26-8.77-2.62-13.24-3.6.2,1.76,2,1.85,3.37,2.25q6,1.57,11.86,3.39a16,16,0,0,1,7.54,5.75c1.4,1.82,3.31,3.39,3.79,5.75a42.55,42.55,0,0,1-7-2.15c-4.5-1.53-9.05-2.92-13.62-4.23a18.11,18.11,0,0,1-4.8-2.44,154.16,154.16,0,0,0,3.54,19.42,28.06,28.06,0,0,0,2.55,6.57c1,1.75,2.8,2.79,4.41,3.94a38.6,38.6,0,0,0,17.91,6.82c-1.26-2.17-2.92-4.17-3.56-6.65,2.39.33,4.47,1.58,6.6,2.62,2.29,1.13,4.54,2.34,6.77,3.6l2-.41a119.66,119.66,0,0,0-12.1-6.3,23.86,23.86,0,0,1-5.48-2.93c-2.41-1.9-4-4.59-5.9-7a7.75,7.75,0,0,1-1.42-3,31.87,31.87,0,0,1,6.43,2c4.79,1.85,9.54,3.83,14.14,6.13,3.87,2.12,5.83,6.26,7.85,10,13.65-4.86,24.18-15.88,31.47-28.09A93.62,93.62,0,0,0,550,562.59c-8.58,2.51-17.11,5.17-25.69,7.68q22.07-27.39,44.07-54.82,12.72,32.84,25.38,65.67c-7.46-4.81-14.88-9.68-22.32-14.54a117.89,117.89,0,0,1-15.7,37A141.31,141.31,0,0,1,518.36,642c.6,3.78,1.56,7.69.67,11.49-2.34-2.33-3.79-5.38-6-7.85l-1.14.72a55,55,0,0,1,6.1,9.2c1.84,4.1.89,8.71-.07,12.92a11.08,11.08,0,0,1-1.58,3.77c-1.61-3.16-2-6.79-3.59-10-1.7-4.39-4.58-8.13-7-12.14a185.81,185.81,0,0,1-19.2,9.73c-5.18,2.35-10.65,4-15.75,6.54-8.1,4-16,8.31-23.89,12.65-7.18-4-14.42-8-21.81-11.64,1,2.06,3.23,3.87,3,6.32a17.15,17.15,0,0,1-4.27-1.64c-4.95-2.33-9.78-4.93-14.51-7.67a15.52,15.52,0,0,1-5.66-6.2,168.5,168.5,0,0,1-41.15-26.56,130.66,130.66,0,0,1-30.74-39.44A115,115,0,0,1,322.65,567q-10.86,7.07-21.71,14.15,12.65-32.86,25.37-65.69,22.07,27.38,44.06,54.82c-8.84-2.64-17.66-5.33-26.49-8,3.81,15,11.29,29.45,22.67,40.16,7.37,6.9,16.7,12.1,26.85,13.16,9.87,1.15,19.84-2.12,27.92-7.69,2.56-1.78,3.61-4.89,4.63-7.69,2.54-8,3.65-16.32,4.72-24.6,1.17-9.71,2-19.46,2.58-29.21-3.9-1.24-6.76-4.22-9.61-7-.78-.83-1.9-1.63-1.79-2.91,4,.26,7.88,1.53,11.83,2.22.06-.46.13-.92.2-1.37-4.12-.89-8.25-1.71-12.37-2.61a15.91,15.91,0,0,1-7.71-4.74c-1.61-1.68-3.74-3.08-4.44-5.42a53.56,53.56,0,0,1,7.08,1.35q6.76,1.49,13.53,2.9a21.45,21.45,0,0,1,4.2,1.43c1.2-26.55,1.71-53.13,1.75-79.7-.09-4.92.2-9.83.12-14.74a16.31,16.31,0,0,1-8,3.72c-2.5.27-5,.9-7.49.92l-.9-.51a23.88,23.88,0,0,1,4.38-4.26c3.8-3.25,7.8-6.26,11.85-9.2.05-8.57-.06-17.13-.13-25.69q-22.16,0-44.33,0a10.81,10.81,0,0,1-10.08-8.34A11,11,0,0,1,387.47,380c2.47-1.22,5.28-1,7.94-1h40c.09-4.08-.19-8.15-.11-12.23a31.95,31.95,0,0,1-6.17-55.82Zm14.37,12.52c-7.27,1.89-12.11,10.16-9.9,17.4,1.78,7.24,9.88,12.11,17.11,10.12,7.5-1.63,12.59-10.06,10.39-17.45C459.29,326.1,450.86,321.14,443.51,323.45Zm43.72,14.37a70,70,0,0,1,17.9-4c4-.18,7.65,1.88,10.72,4.26,1.51,1.25,3.56,2.26,4.1,4.3a8.49,8.49,0,0,1-3.13-.24,43.27,43.27,0,0,0-14.71-.4c-2.3.29-4.57.95-6.91.83-2.57-.06-5-1-7.46-1.58a11.07,11.07,0,0,1-3.84-1.5A14.8,14.8,0,0,1,487.23,337.82ZM499,343.75a40.2,40.2,0,0,1,21.75.88c4.95,1.8,7.36,6.83,9.44,11.28a5.88,5.88,0,0,1,.43,2.73c-3.12-1.39-5.71-3.69-8.75-5.21a31.78,31.78,0,0,0-11.27-3.34c-3.62-.53-6.49-2.95-9.71-4.46a3.92,3.92,0,0,1-1.89-1.88Zm12.17,8.42c1.16-.87,2.61-.18,3.87.07,5.65,1.37,10.36,4.92,15.12,8.09,3.77,2.6,5.15,7.15,6.63,11.24a12.34,12.34,0,0,1,.62,3.46,9.93,9.93,0,0,1-2.6-1.56,115.51,115.51,0,0,0-10.39-7.9c-3-2.17-6.65-3.8-8.74-7.06-1.37-2.21-3.2-4.09-4.51-6.34Zm8,12.06a5,5,0,0,1,2.33,1,123,123,0,0,1,13.75,10.39,14.12,14.12,0,0,1,5.11,8.35c.57,3,1.3,6.13.91,9.23-1.49-.78-2.35-2.25-3.32-3.55a70.19,70.19,0,0,0-12.36-12.3c-3.09-2.55-4.21-6.51-5.79-10-.35-1-1-2-.63-3.08Zm5.65,14.91a7.71,7.71,0,0,1,3.08,1.84,63.15,63.15,0,0,1,9.72,10.49c1.36,2,2.86,4,3.33,6.37.91,4.14-.29,8.35-1.72,12.21a8.64,8.64,0,0,1-2.08,3.12c-.62-2.15-.54-4.4-1-6.57a31,31,0,0,0-6.41-13.1,16.45,16.45,0,0,1-3.4-7.07c-.52-2.43-1.37-4.8-1.52-7.29Zm3.1,15.14a2.54,2.54,0,0,1,1.72,1.21,27.16,27.16,0,0,1,5.56,17.07c.12,4.08-2.22,7.88-5.36,10.34-2.34,1.81-4.74,3.82-7.73,4.4a24.14,24.14,0,0,1,2.53-5.15c2.46-4.79,3.79-10.4,2.54-15.74-.73-3.21.2-6.43.31-9.65a7.23,7.23,0,0,1,.43-2.48Zm-2.83,13c1.07-.33,1.08,1.06,1.21,1.77.4,5-1.43,10-3.92,14.27-1.34,2.21-2.72,4.51-4.91,6a20.28,20.28,0,0,1-7,2.92,16.69,16.69,0,0,1-5.84,1c0-1,.82-1.72,1.49-2.39,4.46-4.17,8.67-8.76,11.41-14.27,1.76-3.66,5.08-6.15,7.58-9.24Zm-15.7,10.41c2.23-.68,4.32-1.84,6.66-2.13a8.68,8.68,0,0,1-1.62,3.72,66.8,66.8,0,0,1-12.18,13.12c-3.37,2.7-7.84,2.86-11.93,3.32a10,10,0,0,1-3.66-.26,17.62,17.62,0,0,1,2.78-2.54,124.32,124.32,0,0,0,13.37-11.31A15.59,15.59,0,0,1,509.31,417.71Zm-11.4,2.66c1.16-.13,2.42-.53,3.51.05a7.65,7.65,0,0,1-2.39,2.91,158.6,158.6,0,0,1-14,11.14c-3.68,2.51-8.29,2.27-12.53,2.53-1,0-2.15.17-2.85-.68a8.57,8.57,0,0,1,2.07-1.82c4.11-2.77,8.18-5.59,12.16-8.55a29.91,29.91,0,0,1,5.65-3.77C492.13,421,495.09,420.9,497.91,420.37ZM419,428.31c3.66-2.92,8.54-2.94,13-3.42a3.76,3.76,0,0,1,2.7.65c-5.18,4.24-10.7,8.08-15.5,12.78a16.19,16.19,0,0,1-7.48,4.42c-2.35.6-4.58,1.74-7,1.88a10,10,0,0,1,1.94-3.61A83.26,83.26,0,0,1,419,428.31Zm-9.82.35c2.6-.64,5.21-1.46,7.91-1.37-.79,1.92-2.58,3.08-4,4.48a60.83,60.83,0,0,0-9.88,11.89,18.68,18.68,0,0,1-5.4,5.41c-1.54,1.06-2.74,2.6-4.48,3.34-.57-1.63-.12-3.35.27-5a39.76,39.76,0,0,1,7.47-13.91,14.46,14.46,0,0,1,8.11-4.88Zm-12.11,4.4c.76-.2,2-1.11,2.2.21a15.67,15.67,0,0,1-1.5,2.44,35.82,35.82,0,0,0-5.52,11.66c-.89,3.38-.34,7-1.67,10.31-.88,2.08-1.3,4.31-2.13,6.4l-.89-.07c-3.44-5.73-4-12.91-2.49-19.33a13.29,13.29,0,0,1,6-8.27,41.21,41.21,0,0,1,6-3.35Zm-16.93,14.17a9.85,9.85,0,0,1,3.12-3.27c.2,2.08-.32,4.14-.39,6.21A28.22,28.22,0,0,0,386.48,465c2.29,4,2,8.69,2.51,13.08-1.41.34-2.47-.9-3.43-1.74a43.85,43.85,0,0,1-6.13-8.67c-1.66-3.3-3.53-6.82-3.14-10.63.2-3.58,2-6.77,3.87-9.76Zm-5.89,18.66c.15-1,.05-2.44,1.16-2.94,1.13,1.52,1.69,3.35,2.61,5a48.68,48.68,0,0,0,5.4,8,28.74,28.74,0,0,0,5.42,4.46c2.6,1.94,3.94,5,5.81,7.55a8.92,8.92,0,0,1,1.54,3.37,35.45,35.45,0,0,1-7.89-3,36,36,0,0,1-11.26-8c-3.24-4-3.08-9.53-2.79-14.43Zm2.19,16.54a24.54,24.54,0,0,1,3.51,2.41,50.58,50.58,0,0,0,13.16,7,25.14,25.14,0,0,1,5.52,2.48,25.64,25.64,0,0,1,4.75,4.62c1.26,1.45,2.78,2.8,3.33,4.72a32.22,32.22,0,0,1-6.51-1.51,115.7,115.7,0,0,1-14.59-5.23c-4.23-2.05-6.36-6.5-8.28-10.54a9.46,9.46,0,0,1-.89-3.95Zm9.32,16.45a25.12,25.12,0,0,1,4.39,1.38,170.15,170.15,0,0,0,16.59,5.13,16.27,16.27,0,0,1,7.63,5.26c1.32,1.56,3.32,2.71,3.91,4.78a7.66,7.66,0,0,1-3-.23c-4.85-1.16-9.71-2.3-14.52-3.63-2.24-.64-4.6-1.1-6.57-2.42-2.71-1.71-4.54-4.38-6.58-6.78a8.35,8.35,0,0,1-1.84-3.49Zm11.67,13.62a8.91,8.91,0,0,1,3.6.56c5.82,1.64,11.73,2.93,17.62,4.31,4.17,1,7,4.38,10,7.19.68.76,1.74,1.57,1.56,2.72a35.25,35.25,0,0,1-6.2-1.06c-5.11-1.13-10.23-2.18-15.31-3.44-3.92-1-6.54-4.31-9.29-7.06-.84-.94-2-1.85-2-3.22Zm71.83,71.57a16.79,16.79,0,0,1,3.83.77c5.6,1.72,11.18,3.54,16.67,5.6a15,15,0,0,1,6.78,5.61c1.49,2.11,3.19,4.14,4.12,6.59-1.75.08-3.29-.81-4.82-1.49-5.21-2.38-10.59-4.33-16-6.27-3.87-1.42-6.26-5-8.91-7.89a8.25,8.25,0,0,1-1.7-2.92Zm36.44,70.23.31-.5a6.33,6.33,0,0,1,2.05,2.34,48.66,48.66,0,0,1,6.6,17.8c.53,4.43-1.75,8.44-3.9,12.12-.71,1.11-1.32,2.58-2.78,2.84a12.7,12.7,0,0,1-.14-2.61,55.07,55.07,0,0,0-1.07-13.43c-.72-3.76-2.58-7.39-2-11.31.45-2.4.12-4.95.88-7.25ZM408.63,666a41.54,41.54,0,0,1,6.37,3.17c4.25,2.27,8.59,4.4,13,6.31,3.23,1.33,5.41,4.13,7.46,6.83a12.1,12.1,0,0,1,2.76,4.32,24.93,24.93,0,0,1-6.83-1.78,133.45,133.45,0,0,1-13.25-5.56,15.42,15.42,0,0,1-6.57-6.73c-1.15-2.1-2.83-4.06-3-6.56Zm92,8.91a66.69,66.69,0,0,1,3.08-6.58,8,8,0,0,1,1.41,3.1,58.17,58.17,0,0,1,1.13,18.28c-.33,3.83-2.77,7-5.34,9.67-1.4,1.37-2.55,3.3-4.6,3.7a19.27,19.27,0,0,1,.88-4.92A70.68,70.68,0,0,0,499,681.35a15.18,15.18,0,0,1,1.56-6.47Zm-82.66,6.17a21.92,21.92,0,0,1,5,1.89,108.81,108.81,0,0,0,15,5.33,16.36,16.36,0,0,1,7.06,4.28c1.56,1.53,3.63,2.64,4.62,4.69a33.35,33.35,0,0,1-9.44-.81A76.43,76.43,0,0,1,427.74,693c-3.92-1.63-6.19-5.38-8.58-8.65-.62-1-1.54-2-1.22-3.25Zm77.48,2.49a4.21,4.21,0,0,1,2.07-1.47,62.13,62.13,0,0,1-2.91,20.38c-1,3.64-3.81,6.45-7,8.33-2.31,1.34-4.62,3-7.39,3.11.76-1.94,2.16-3.49,3.24-5.25a47.2,47.2,0,0,0,5.64-15c.88-4,4-6.87,6.33-10.1Zm-11.16,12.05a8.41,8.41,0,0,1,3.16-1.82,26.63,26.63,0,0,1-1.91,7.49,37,37,0,0,1-7.29,12,13.84,13.84,0,0,1-9.72,3.79c-2.91,0-6,.24-8.69-1.19a18.21,18.21,0,0,1,3.48-1.73,27.07,27.07,0,0,0,11.35-8.38c1.48-1.86,2.45-4.1,4.15-5.78s3.7-2.87,5.47-4.41ZM428.6,695c6.17,1.47,12.28,3.48,18.68,3.68a20.15,20.15,0,0,1,8.42,1.42c2.22,1,4.67,1.6,6.78,2.91a11,11,0,0,1-3.58,1.83,39.06,39.06,0,0,1-14.07,1.23,17.33,17.33,0,0,1-6.61-1.37,20.81,20.81,0,0,1-6.09-4.74c-1.4-1.48-3.18-2.83-3.53-5Zm44.6,6.91a9.84,9.84,0,0,1,1.7-.26c.61.94-.25,1.84-.75,2.61a27.19,27.19,0,0,1-16,10c-4.16.83-8.23-.88-11.72-3-1.55-1-3.66-1.75-4.26-3.68a38.78,38.78,0,0,1,5.6,0,31.67,31.67,0,0,0,15.61-3.29c3-1.58,6.55-1.5,9.79-2.42Z" transform="translate(-34 -112)"/></g><path class="cls-2" d="M1224,122V902H44V122H1224m10-10H34V912H1234V112Z" transform="translate(-34 -112)"/></svg>