<svg xmlns="http://www.w3.org/2000/svg" viewBox="0 0 584.09 107.25"><defs><style>.cls-1{fill:#e6e6e6;}</style></defs><title>Asset 1</title><g id="Layer_2" data-name="Layer 2"><g id="Vector_Graphics" data-name="Vector Graphics"><path class="cls-1" d="M167,105.26q-31.17-2.19-62-6.85t-61.17-11h-4l-4,13.91H18.08l-4-17.89a32.56,32.56,0,0,1-2.88,3.08,33.76,33.76,0,0,1-3.08,2.88,5.41,5.41,0,0,1-1,.21,1.46,1.46,0,0,1-.48-.1,1.68,1.68,0,0,0-.51-.11,8.47,8.47,0,0,0-1-4.26A24.06,24.06,0,0,0,3.08,82C2.36,81.1,1.67,80.23,1,79.44a4.56,4.56,0,0,1-1-3,10.54,10.54,0,0,1,1.31-1.9c.85-1.1,1.77-2.33,2.77-3.66s2.36-3.12,4.07-5.36a3,3,0,0,1,1-.19,4.5,4.5,0,0,1,1,.19c.42.27,1.27.89,2.6,1.88a11.62,11.62,0,0,1,2.37,2.09V39.73H37.93l6,25.81h4c2.66-.27,6.72-.7,12.21-1.29s11.69-1.3,18.57-2.1,14.14-1.64,21.75-2.57,14.9-1.79,21.84-2.58,13.19-1.5,18.67-2.1,9.57-1,12.21-1.28c.94-.14,3.25-.3,7-.5s7.66-.37,11.9-.51,8.21-.27,11.91-.47,6-.38,7-.51a9.94,9.94,0,0,0,2.38-.59,33.16,33.16,0,0,0,3.68-1.5c1.26-.59,2.44-1.14,3.57-1.69a21.34,21.34,0,0,0,2.29-1.18H380.52V23.84A13,13,0,0,0,384.1,21a53.7,53.7,0,0,0,4.26-5.07A42.71,42.71,0,0,0,392,10.33,10.19,10.19,0,0,0,393.43,6c.13.67.42,2,.9,4a32.59,32.59,0,0,0,1.09,4c.26.66.63,1.49,1.09,2.48s.77,1.49.9,1.49h17.87c.13-.26.44-.92.9-2a7.7,7.7,0,0,1,1.08-2c.13-.13.5-.47,1.09-1s.9-.85.9-1c.13-.39.36-1.13.69-2.26s.68-2.36,1-3.69.62-2.54.89-3.67A12.46,12.46,0,0,0,422.22,0V17.87l17.88,4V45.68l3,2q3,.2,9.23.79t14,1.29q7.76.69,16.48,1.59L499.28,53c5.17.53,9.83,1,14,1.49s7.25.83,9.22,1.1a40.42,40.42,0,0,1,4.67.89c2.72.6,5.86,1.33,9.45,2.19s7.17,1.76,10.83,2.67S554,63,556.29,63.55c2,.52,4.53,1.33,7.64,2.39A56.43,56.43,0,0,1,573.07,70a32.85,32.85,0,0,1,7.74,5.88,10.51,10.51,0,0,1,3.28,7.52,12.69,12.69,0,0,1-4.16,9.53,32.86,32.86,0,0,1-10.64,6.56,82.17,82.17,0,0,1-14.4,4.18q-7.93,1.58-15.49,2.38c-5,.54-9.6.87-13.7,1s-7.14.21-9.14.21h-13.9c-6.36,0-15.34,0-26.93-.1l-39.79-.21q-22.45-.09-48.48-.29l-52.72-.4-52.72-.4q-26-.19-48.47-.3t-39.81-.2Q176.37,105.26,167,105.26Z"/></g></g></svg>