<svg id="Layer_1" data-name="Layer 1" xmlns="http://www.w3.org/2000/svg" viewBox="0 0 416.18 433.11"><defs><style>.cls-1{fill:#ff0000;}</style></defs><path class="cls-1" d="M585.88,701.13c0,1,5.5-4.16,6.6-5C590.36,696.28,584.42,702.45,585.88,701.13Z" transform="translate(-176.3 -311.47)"/><polygon class="cls-1" points="388.19 391.27 390.65 389.41 383.73 392.96 388.19 391.27"/><path class="cls-1" d="M556.63,693.59c-8.89,9.35,4.44,1.91,2.43,6.54l-2,2.2,8.41-6.1C562.54,695.35,555.15,697.34,556.63,693.59Z" transform="translate(-176.3 -311.47)"/><path class="cls-1" d="M573.22,670.37c-3.49,3.61-4.15,1.81-.18,2.17.31-.47.52-.71.77-1C573.58,671.35,573.35,671.07,573.22,670.37Z" transform="translate(-176.3 -311.47)"/><path class="cls-1" d="M573.81,671.49c1.11.72,2.6-3.4,0,0Z" transform="translate(-176.3 -311.47)"/><path class="cls-1" d="M567.77,669l4.46-1.7c2-2.21,1.49-3.77,3.47-4.78C572.72,662.83,570.76,665,567.77,669Z" transform="translate(-176.3 -311.47)"/><path class="cls-1" d="M559.69,674l2-.6C562.51,672.47,562.68,672,559.69,674Z" transform="translate(-176.3 -311.47)"/><path class="cls-1" d="M565.89,672.14l-4.21,1.26c-1.39,1.56-4.5,4.33,1.64-.32C560.37,675.49,563.35,673.34,565.89,672.14Z" transform="translate(-176.3 -311.47)"/><path class="cls-1" d="M565.11,674.22c-1.47,2.55-2,4.62-6.43,6.31C562.12,681.76,568.59,675.43,565.11,674.22Z" transform="translate(-176.3 -311.47)"/><path class="cls-1" d="M546.25,701.91l-2,3.43,4-2C546.24,704.31,549.22,699.19,546.25,701.91Z" transform="translate(-176.3 -311.47)"/><path class="cls-1" d="M565.83,656.75c-2.12,1.74-5.08,5.25-7.62,7.67l3.17-1.16C562.36,661.55,562.85,659.5,565.83,656.75Z" transform="translate(-176.3 -311.47)"/><path class="cls-1" d="M558.21,664.42l-4.74,1.72C554.15,667.74,556,666.49,558.21,664.42Z" transform="translate(-176.3 -311.47)"/><polygon class="cls-1" points="372.5 371.76 381.9 367.5 372.01 371.4 372.5 371.76"/><polygon class="cls-1" points="385.09 339.76 390.53 336.35 382.13 341.29 385.09 339.76"/><path class="cls-1" d="M557.45,648.44c4.43-2.89,5.93-6.68,8.89-8.21-1.55-.33-5.64,1.84-9.32,3.79C559.4,643.3,559.71,644.52,557.45,648.44Z" transform="translate(-176.3 -311.47)"/><path class="cls-1" d="M551.52,646.7A50.22,50.22,0,0,0,557,644,25.84,25.84,0,0,0,551.52,646.7Z" transform="translate(-176.3 -311.47)"/><path class="cls-1" d="M552.39,662.88c1.14-1.2,4.2-4.28,4.88-6.27L552,662.26Z" transform="translate(-176.3 -311.47)"/><path class="cls-1" d="M551.82,662.44l.17-.18a11,11,0,0,1-.72-1.47C551.35,661,551.53,661.48,551.82,662.44Z" transform="translate(-176.3 -311.47)"/><path class="cls-1" d="M552.49,663c0-.06-.06-.11-.1-.16C551.87,663.43,551.71,663.63,552.49,663Z" transform="translate(-176.3 -311.47)"/><path class="cls-1" d="M550.8,675c-3.94,2-8.9,3.4-12.36,9.38C542.9,681.46,544.87,678,550.8,675Z" transform="translate(-176.3 -311.47)"/><path class="cls-1" d="M545.89,670.09l0,2.64c1.5-1.38,3.48-3.61,5.43-4.62Z" transform="translate(-176.3 -311.47)"/><polygon class="cls-1" points="367.12 359.52 369.59 358.63 369.59 357.65 367.12 359.52"/><path class="cls-1" d="M548.37,654c-3.07,1.59-3.89,1.08-5,.65-.39,1.85-.23,3.26.52,4.07C545.81,657.24,549.37,654.73,548.37,654Z" transform="translate(-176.3 -311.47)"/><path class="cls-1" d="M549.54,658.55c-.17.07-.28.08-.45.15C548.68,659.22,548.58,659.43,549.54,658.55Z" transform="translate(-176.3 -311.47)"/><path class="cls-1" d="M536.55,646.89l-.93,1.06,1-.86Z" transform="translate(-176.3 -311.47)"/><path class="cls-1" d="M543,659.82c-.55,1.62,1.19.75,3.29-.47a3.12,3.12,0,0,1-2.34-.63C543,659.4,542.49,659.86,543,659.82Z" transform="translate(-176.3 -311.47)"/><path class="cls-1" d="M546.92,646.93a34,34,0,0,0-2.19,3.9C546.27,648.89,548.52,645.71,546.92,646.93Z" transform="translate(-176.3 -311.47)"/><path class="cls-1" d="M550.49,657.08a1.65,1.65,0,0,1,.34-.13C551.89,655.64,551.3,656.2,550.49,657.08Z" transform="translate(-176.3 -311.47)"/><path class="cls-1" d="M550.49,657.08a35.3,35.3,0,0,0-4.25,2.27,8.21,8.21,0,0,0,2.85-.65C549.43,658.26,550,657.64,550.49,657.08Z" transform="translate(-176.3 -311.47)"/><path class="cls-1" d="M497.58,677.38c5.42-4.63,11.82-7.35,7.38-.85,5.25-2.14,21.95-18.64,30.66-28.58a22.24,22.24,0,0,1-9,5.28c-2.46,3.09-3.94,9.26-9.85,12.33-4.45.52.48-3.25,2.47-6.69-5.93,6.7-11.83,6.16-21.21,15.26l4.92-1.38C501.52,674.13,498.55,675.68,497.58,677.38Z" transform="translate(-176.3 -311.47)"/><path class="cls-1" d="M537.53,651.2h1.19c.33-1.51,2-3.89,5.39-8.5a25.09,25.09,0,0,0-7.48,4.38l1.88,3.6Z" transform="translate(-176.3 -311.47)"/><path class="cls-1" d="M541.14,653.87c-6.22,4.68-10,5.44-15.46,11.89,2,1.39,5.94-3.07,9.38-4.26-3.94-1.56,4-2,5.43-7a4.4,4.4,0,0,1,2.89.17,18.82,18.82,0,0,1,1.35-3.82l-.3.39h0l-.1.08c-.61.77-1,1.2-.72.69a.26.26,0,0,1-.17,0c-.82.7-1.57,1.27-2.3,1.82.47-1.89,1.39-1.47,2.3-1.82.29-.24.58-.46.89-.73l.07-.07h-5.71C538.46,652.52,539.29,653.12,541.14,653.87Z" transform="translate(-176.3 -311.47)"/><path class="cls-1" d="M524.61,693.9a11.84,11.84,0,0,1,1.27-1.28C525,693.06,524.46,693.43,524.61,693.9Z" transform="translate(-176.3 -311.47)"/><path class="cls-1" d="M527.09,689.63c1-.51,3.47-2.39,3.46-1.19-1.23,2.12-2.79,2.46-4.67,4.18,1.9-1,5.42-2.28,7.12-6l-1,.5c1-2.91,6.94-10.79,7.91-11.29C535,680.75,531.55,684.34,527.09,689.63Z" transform="translate(-176.3 -311.47)"/><path class="cls-1" d="M532.57,673l-4.94.17-4,5.65,3-2.74C526.64,678.47,530.1,674.88,532.57,673Z" transform="translate(-176.3 -311.47)"/><polygon class="cls-1" points="362.89 332.59 369.29 327.46 359.44 333.79 362.89 332.59"/><polygon class="cls-1" points="359.43 330.18 364.85 325.56 360.92 327.6 359.43 330.18"/><path class="cls-1" d="M315.05,530.47l-2.11.71A6.83,6.83,0,0,0,315.05,530.47Z" transform="translate(-176.3 -311.47)"/><path class="cls-1" d="M319.24,535.68l2.68-2.27C320.29,534.5,319.16,535.38,319.24,535.68Z" transform="translate(-176.3 -311.47)"/><path class="cls-1" d="M467.72,567.17c4-5.47,10.64-13.53,4.81-8l-5.5,5.56C468.7,564.47,468.55,565.59,467.72,567.17Z" transform="translate(-176.3 -311.47)"/><path class="cls-1" d="M386.81,547.74l-1.48,1.9,6.12-4.39Z" transform="translate(-176.3 -311.47)"/><path class="cls-1" d="M362.38,568.92l2.51-4.71A22.44,22.44,0,0,0,362.38,568.92Z" transform="translate(-176.3 -311.47)"/><path class="cls-1" d="M284.16,509.53l-6.54,4.66C278.8,515.38,281.22,512.1,284.16,509.53Z" transform="translate(-176.3 -311.47)"/><path class="cls-1" d="M505.56,612.21c1.49-2.91,1.83-4.46,1.56-5.32C504.73,610.93,500.47,616.27,505.56,612.21Z" transform="translate(-176.3 -311.47)"/><path class="cls-1" d="M377.52,476a12.29,12.29,0,0,0-4,2.66A9.88,9.88,0,0,0,377.52,476Z" transform="translate(-176.3 -311.47)"/><path class="cls-1" d="M504.85,604.4c-.44.67-.6,1.09-1,1.69,1.54-.24,2.9-.31,3.22.8C508.91,603.89,509.65,601.63,504.85,604.4Z" transform="translate(-176.3 -311.47)"/><path class="cls-1" d="M198,409.36c.19-.31.23-.51.47-.86C197.69,409.21,197.74,409.35,198,409.36Z" transform="translate(-176.3 -311.47)"/><path class="cls-1" d="M227.9,326.87c.62-.07,1,.37,1.54.72C229.62,327,229.25,326.71,227.9,326.87Z" transform="translate(-176.3 -311.47)"/><path class="cls-1" d="M527.28,627c1,.31.73-.47,0,0Z" transform="translate(-176.3 -311.47)"/><path class="cls-1" d="M507.05,650.76A19.52,19.52,0,0,0,504,653,25,25,0,0,1,507.05,650.76Z" transform="translate(-176.3 -311.47)"/><path class="cls-1" d="M462.92,630.46s0-.06,0-.08C461.93,631.6,462.12,631.37,462.92,630.46Z" transform="translate(-176.3 -311.47)"/><path class="cls-1" d="M525.5,630.38a8.59,8.59,0,0,0,1-2.37A9.77,9.77,0,0,0,525.5,630.38Z" transform="translate(-176.3 -311.47)"/><path class="cls-1" d="M528.14,627.79a9.23,9.23,0,0,0-.06,1.07C529.12,628.08,529.67,627.46,528.14,627.79Z" transform="translate(-176.3 -311.47)"/><path class="cls-1" d="M526.16,626.41c.42.29.45.89.33,1.6a2.91,2.91,0,0,1,.79-1A5.31,5.31,0,0,1,526.16,626.41Z" transform="translate(-176.3 -311.47)"/><path class="cls-1" d="M262,446.14c.14-.21.21-.37.41-.65C259.47,447.09,260.11,447,262,446.14Z" transform="translate(-176.3 -311.47)"/><path class="cls-1" d="M392.53,605c.09,0,.26-.15.35-.18a2.36,2.36,0,0,1,.12-.28Z" transform="translate(-176.3 -311.47)"/><path class="cls-1" d="M386.14,606.66c8.08-5.58,7.7-4.22,6.86-2.09l15.94-15.93Z" transform="translate(-176.3 -311.47)"/><path class="cls-1" d="M302.53,520.33l-3.65,6.38c-10.23,6-8.61,1.85-14.44,10.08,18.09-16.46,7.59,4.47,25.66-12l-2.78,4.56c-.11-.47-1.2.47-1.3,0-6.67,10,14.34-10.53,14.25-5.52a10.92,10.92,0,0,1-5.22,6.6l6.33-2.07c.21.92-3,3.66-3.25,2.76l4.34,1.79-.55.46c3.22-2.17,8.5-5.19,10.81-6.41-1.83,3.18-2.27,1.36-4.31,3.64l5.95-2.3c-4,5-9.83,7.76-10.28,6-16.38,18.22,5.85-2.76-1.37,10.43l-3.78.48c-9.19,10.48-4.33,8.34-9,16.06,2.91-3.5,12.55-18.51,18.75-20.77-.86,1.78-.86,3.08,3.69.75-6.37,5.91-3.88,5.45-2.38,6.36l-8.52,7.74c3.68-.92,7.88-5,12.41-7.75.55,2.27-5.71,8.64-10.9,14.09.87,3.63,9-11.36,13.18-10-1.39,5,3.35,3.18,10.62.89-1.63,4.08-5.4,4.53-7.36,7.27l7.89-5c.12.45-2.05,2.27-3.14,3.18,3.58-1.37,8.53-7.72,12.35-8.2,9.73-8.16-10.52,15.93,1.93,8.2-1.94,2.71-5.41,4.54-8.54,7.71,9.51-3.62,7.24-2.27,18.7-8.59l-3.77,7.07c5.05-7.29,14.26-12.39,21.92-16.47,2.61-3.33,4.9-6.24,5.91-7.72l6.91-1.61c-1.11,1.59-4.26,4-8.18,6.84.86-.47,1.7-.94,2.46-1.4-2.29,3.8-7.62,7.82-13,11.52,1.39-1.85,2.89-3.8,4.38-5.73a152.05,152.05,0,0,0-16.81,13.44,7.65,7.65,0,0,1,3.06-1.26,25.22,25.22,0,0,0-3.67,3c-.82.9,1.3-.56,3.85-2.12L362.85,572l3.88-3.31-2.84,8.78c11.71-6.34,27.65-17.12,35.06-16.88-7.81,5.41-11.52,10.18-19.79,17.66,7.75-9-6.41.45-6.45-3.14,0,1.86-4.09,5.23-5.7,6.23l11.15-3.75c-6.8,6.08-4.36,5.37-6.3,8.83,12.65-12.87,11.25-5.48,16.64-7.78-4.39,4.18-9.26,8-9.78,5.27-8.25,11.09,17.9-11.8,11.12-2.12-.5-.33,0-1.19-2.45.72,4.89-2.63,4,2.68-.45,5.67l-.48-.34c1,4.27,7.79,8.71,19.49-1.18-1.44,1.36-14,12.07-16.42,14L432.23,571c-10.13,8.41-31.71,31.21-39.35,33.87-.77,1.93-1.62,4.24,3.11,2.54,1-1.72,13-13.95,14.47-14.13-9.25,11.59-4.7,6.47-12,17,1.46-2.59,17.41-15.7,17.91-14.16-2.43,1.9-15,13.79-16.92,14.83l17.45-10.89c-3.32,1.77-12.8,11.42-16.49,15.88,2.68-2.95,1.87,2.6,4,2l2.43-4.31c.52,5.13,23.83-16.1,25.82-12.33-3.44,2.45-19.89,16.38-20.37,19.65,8.32-6.26,39.8-30.35,48.18-33l-3.91,4.5,6.89-2.45c-12.75,9.16-40.37,27.58-51.62,34.18-2.43,4.3-4.89,5-2.93,6.38-3.56,4.33-7.09,4.72-7.79,4.43l1,6.41c8.82-8.31,11.78-5.08,19.11-12L408,633.44c8.78-8.29,27.75-20.55,28.74-16.25-2.92,3.95-16.46,13.9-19.4,16.67,3.42-2.42,8.34-2.63,6.38-.39l-5.89,3.13c-1.94,4.64,14.24-8.17,7.39,1.48,0,1.18-9.79,12.41-4.38,7.72,9.29-10.32,40.8-39.16,49.14-45.39-.48.85-6.66,12.32-11.05,17.64-7.06,8.33-20.63,15.65-26.7,22.8a46,46,0,0,1,7.25-4.93c-1.47,2.58-7.86,6.57-5.39,7.07,9.34-8,2,3.75,8.34-6.23,3.93-.88-.46,3.25,1.49,4.61,5.4-5.85,21.45-16.5,25.39-17.36a65.81,65.81,0,0,0-6.36,6.45c1.91,3.75-.79,9.11,1.67,12-2,2.25-3.44,6-7.88,9,2-1,5.4-3.45,6.4-2.78-6.38,8.77-3-.84-11.3,9,5.4-4.65,9.34-4.32,13.76-6.06,7.86-7.73-1-4.27-5.41-2.54,11.29-10.15,25.07-18.62,32.95-20.35,4.92-.16-6.4,7.58-4.42,6.54,2,6.18,23.13-13.93,18.25-3-5.9,7.9-14.29,12.9-19.2,17.88-4.45.53,1.95-7,.49-8.08l-2,4.65c-2.94,1.54-5.9,1.9-4.44-.67-5.39,7,5.44,8.55,2.49,17.31,3-1.56,6.39-2.75,8.86-5.83l-2-.18c4.93-6.19,9.86-5.16,11.36-9,5.38-2.21,13.26-6.32,11.79-1.34l-7.9,7.73c2.37-2.19,3.72-5.71.7-4,4.41-2.4-8.36,13.07,3.25,4.39l4.44-6.52c5.43-2.24,15.79-8.23,14.8-4.1,7.41-8.07-1.3.41,7.07-9.36-10.85,11.67-3.63-5.08-14.48,7.81,9.87-11.17,2.65-6.47,10.53-16.6-2.67,2.48-4.65,5.25-4.67,2.53-.85.64-2,1.38-2.69,1.81a1.72,1.72,0,0,1,.11-.29l-.24.37c-.47.3-.56.37-.09.13a26.17,26.17,0,0,1-3.44,4.47c-6.91,4.81-8.86,2.21-12.82,4.28.49-2.06,3.45-2.41,5.91-5.49l-5.91,3.09c5.92-5.51,7.87-11.34,13.3-12.37l-1.44-2.15c2.37-4.15,2.33-6.9-1.06-5.59.49-2.07-8.71,3.7-3.29.26l-6.42.35,1.48-1.38c-1.89-3.64-15.41,2.86-7.58-10.26-2.41.36-5.19,1-5-2.19l4.91-5c-3,.35,1.75-8.51-4.16-4.19,12.74-14-2.54-8.93-2.08-13.41l-6.85,6c-1-1.89-4.27-1.63-8.72-1.08l-5.88,5.52c-6.4,2.8.44-8.08-2.53-10.14,2.45-1.89,2.45-.69,1.49,1,10.7-15.36-15.78,2.34-8.5-9.39-2.81,1.27-2.53.09-1.47-1.77.07,0,.23,0,.47-.11a.43.43,0,0,0-.19-.35c.75-1.25,1.65-2.65,2.3-3.87a26.19,26.19,0,0,0-2.46,3.73c-.62-.43-2.1-.58-4.33,0l6.1-6.17c-.14,0-.18-.06-.35,0,1.65-2.94-3.61,2.12-8.06,6.93a29.37,29.37,0,0,0-4.84,2.45c9.78-10.05-5.4,1.06,4.85-9.86-5.88,4.36-7.73-.36-19.44,9.51,1.45-1.37,1.94-2.24,2.42-1.89.48-2.07,1-4.14-3-2l7.8-7.8-12.74,8c3.89-5.7,6.32-8.83,13.66-13.36-12.23,5.94-5.74,1-17.5,7.3l5.37-4.69c-1-.68-9.3,4.37-5.42-.12,8.23-11.07-7.36-10.82-2.62-24.29C412.62,550,432,526.19,419.86,537c3.38-3.64,4.82-6.22,8.73-8.34-5.91.77,2.3-9.12-9.4-1.59,3.4-3.66,5.86-4.38,7.79-6.63-1,.52-3.92,2.11-2-.15s3.41-2.45,5.37-3.51c-3-2-14.49,8.06-25.23,17.59,3.8-5.91,2.49-5.91-5.3-.48,3-3.63,6-7.72,8.66-7.26-.32-1.36,0-10.17-8.55-2.47,1.89-2.26-.53-1.84-1.72-1.17-1.36-2.49-.76-3.37-3.39-4.62l-.87,1.83c-10.93,8.62-3.8.45-6.5,0l1.08-.92c4-10.45-5,1.68.07-9.69l-6.16,6.06c-13.95,12.27,5.08-10.63-2.07-7.91l-2.92,4.1c-5.72,3.18,15.57-20.35,16.2-23.08,1-1.35,2.27-1.36,3.47-1.83,5.24-10.46-8.66,7.3-12.66,6.84,4.09-4.56,11.87-10,11.3-12.29,2.92-4.12-18.58,9.07-11.92-.94-3,3.65-6,7.29-9.6,8.66-2.71-.45,9-16.41-3.19-7.76a18.09,18.09,0,0,1,2.43-2.79c-3.93,1.38-8.34.37-14.9,5.11,20.77-21.46-17.65,2.32,2.48-16.41l-4.57-2.74,2.15-1.82c-.9-3.64-6.51,0-12.12,3.69.85-1.83,3.1-3.18,4.2-4.12.78-7.28-.41-6.83-13.14-.38l6.22-6.41c-4.52,2.76,5.48-14.61-5.32-10.92a19.17,19.17,0,0,1,3.27-2.36c-11.23,3.32,9.37-26.18-15.62-5.31l-8.22,3c1.25,5-10.72,9.18-13.38,14.22-2.6,0,4-10,6.7-9.6l-.95,1.36c12.88-11,.54-8.19,9-16-6.69-5.87-5.8-18.61-11-25.13l-8.9,9.76L298,411.88c1.7-2.66,6.77-7.83,7.8-6,4.67-5.92-6.92,1.79-9,3.72,1.08-6.61,12.23-9.42,11.6-10.54l-1.87-.55-.86,1.34c-4.84,2.71-9.06,6.55-10.3,4.3.83-3,5.34-6.18,5.28-7,.68-.64.85-1.09-.38-.95l-1.7-3.42L292,401.06c-4.83,2.36-2-2.86-9.34,6.47,11.46-14.31-4.65-14.35-1.63-19.33-7,3.59-8.49,1.89-9.74-.75-1.09,2-9.26,10.36-9.87,7.65,18-16,4.55-10.39,15.75-23.78-7.12,9.2-6.74-2.95-16.67,10.31,0-2.79,6.43-6.33,9.49-11.35-10,3-2.85-11.75-9.2-13.8-2.35,2.12-5.16,6.18-9.43,8.54l9.27-13.2c-1.92.24-13.91,11.9-7.46,2.76-1.71,2.06-4.3,5.16-5.56,5.3,3.15-19-25.37-8.11-12.65-36.65-3.31,5.41-4.48,5.07-5.48,4.36-.51,1.59-5.63,5.43-8.61,8.52l5.17-11.8c-9.17,7.65-4.23-3.2-12.75,4.36l2.54-.31c-11.07,7.88-19.44,22.85-32,34.64,12.57-9-12,20.08,6.27,7.57-1.94,3-4.48,3.35-7,6.45,6-4.45,7.88-4.7,7-.86l-1.48,1.1c5.45,3.05,2,9.95,3.18,18.16l5.79-6.27c.18,1.83-1.53,3.9-2.6,5.87,10.46-7.77-2.29-3.43,9-12.23-11.16,13.42,6.88,7.53-6.43,22.14,1.47,1.67,6.66-7.32,8.12-5.64l-3.44,4.13,5.35-4.36c.19,1.83-4.11,7-7.33,10.16.14-.63-1.61.15-2.15.14-3.22,5.72,5.24,2.36,4.21,4.24l.89-3.81c7.81.91,7.88,11.09,19.76,7.83l2.6-3.1c8.47-1.91-.72,5.65,5.17,6.82l-.82.53c3.58-2.05,5.95-2.5,6.55-1.21-4.26,2.36-5,8-9.9,10.43,9.13-2,6.19-2.59,19.23-10.59l-4.32,5.14c5.12-3.38,7.49-5.51,10.44-4.93-5.54,2.5-6.28,8.15-13.32,11.75-7,13.79,15.95-4.62,2.12,11.81,15-11,4.36-10.31,8.13-12.07,3.61-5,11.35-8.1,11.12-5.65.84,1.48-15.19,18.32-12.09,21.08-.22-.36-1.25.58-1.48.23-2.35,4.36,6.72-2.2,2.47,4.45,8.84-6.92,1.24,2.23,11.78-7.35l-5-.49c4.18-1,17.67-11,14.25-2.87a44.46,44.46,0,0,1-7.78,4.54c-2.33,3.64,3.4-.47,1,3.28-10.56,9.59-5.43-1.22-14.9,4.6-3.61,5,10.49-3.95-1.51,5.84,15.39-12.31,1,4.66,13.82-3.62L254.1,462c1.28-.61,4.84-2.72,5.24-2l-9.06,6.54c8.43-4.85-3,8.85,2.24,6.9-3.32-3.13,6.77-7.82,10-13.5,12.16-3.77-14,17.7-6.73,19.45-1.46.21,1.54-5.84,5.33-7.59a24.52,24.52,0,0,1-4.51,9.09c4.14,1.81,6-6.5,11-8.81-6.59,8.17,4.48-1.42,8.16-2.38l-6.31,6c-.79,7.28,14-11.5,12.07-3.77l-10,6.94,3.79-.51-7.5,6.44c7-3.26,6.13-1.41,5.75,2.22,4.07-4.6,11.68-10.58,13.33-9.23-2.77,4.57-6.56,5.07-3.61,6.39-4.42,3.23-9.9,7.37-5,.94-2.15,1.84-4.42,3.25-6.55,5.07-3.26,5.19,1.67,3.75,2.47,4.48a3,3,0,0,1,.68-2.24l11.72-5.09a19.21,19.21,0,0,1-6.42,5.49c1.28,0,4.6-2.29,6-1.86-5.37,4.59-10.63,9.63-14.29,10.58l8.52-2.36c-2.05,2.3-4.7,7.31-7,8.7-1.46,4.5,13.82-5.29,11.89.66a8.82,8.82,0,0,1,3.46-1.71c.77,3.17-3.83,10.92,5.54,6.77l-7.93,10c3.9,0,9.87-12.78,16.36-12.83,5.08-.49-7.09,8.21-8.92,11.42,5.71-3.23,17-10.12,11.46-1C303,522.16,303.81,520.34,302.53,520.33Zm26.28,20c-1.77.78-6.74,3.68-3.3-.14C333.29,534,330.18,537.61,328.81,540.34Zm49,22.23c-2.44,1.6-1.88.1,0-2.72C378.69,559.8,378.91,560.52,377.78,562.57Zm137.87,62.06a3.06,3.06,0,0,0-.36.23C516.86,621.55,516.2,622.81,515.65,624.63Zm-.85,4.71a10.65,10.65,0,0,0,2.81-2.31c-1.78,1.31-2.33.92-2.37,0C513.68,628.65,512.76,630,514.8,629.34ZM298,399.18l-1.25,2C294.07,401.94,296,400.65,298,399.18Z" transform="translate(-176.3 -311.47)"/><path class="cls-1" d="M365.23,566.48a47.12,47.12,0,0,1,3.29-3.4A9.85,9.85,0,0,0,365.23,566.48Z" transform="translate(-176.3 -311.47)"/><path class="cls-1" d="M285.37,508.67c0-.07,0-.08,0-.14-.42.32-.82.66-1.21,1Z" transform="translate(-176.3 -311.47)"/><path class="cls-1" d="M429.65,644.72a15.28,15.28,0,0,1,2.55-3.87C430.6,642.25,429.45,643.66,429.65,644.72Z" transform="translate(-176.3 -311.47)"/><path class="cls-1" d="M536.2,631.16l-2.94.1c.93.39-.27,1.9-1,3.16C533.75,633,535.71,630.82,536.2,631.16Z" transform="translate(-176.3 -311.47)"/><path class="cls-1" d="M506.94,679.1c1-.5.47.36,1.46-.16l3-2.73C510.39,675.51,507.42,677.06,506.94,679.1Z" transform="translate(-176.3 -311.47)"/><path class="cls-1" d="M515.82,651.66c-5.35,5-2.71,4.21-.83,4.29-.07,0-.16-.05-.15-.17C522.73,649.27,519.27,650.47,515.82,651.66Z" transform="translate(-176.3 -311.47)"/><path class="cls-1" d="M515.38,656c.53.07,1,.26,1,.79C519.49,654.2,516.64,655.87,515.38,656Z" transform="translate(-176.3 -311.47)"/><path class="cls-1" d="M520.9,628.89c-1,1.73,7.23-5.93,5.25-3.68C533.55,619.54,515,629.59,520.9,628.89Z" transform="translate(-176.3 -311.47)"/><polygon class="cls-1" points="322.27 357 328.69 350.65 322.77 354.94 322.27 357"/><path class="cls-1" d="M496.59,656.3l-.46,3.24a6.23,6.23,0,0,1,2.67-1.63C498.16,656.74,498.55,654.49,496.59,656.3Z" transform="translate(-176.3 -311.47)"/><path class="cls-1" d="M498.8,657.91c.32.62.89,1,2.24.27A2.61,2.61,0,0,0,498.8,657.91Z" transform="translate(-176.3 -311.47)"/><polygon class="cls-1" points="318.33 356.66 319.32 354.94 318.83 353.39 318.33 356.66"/><path class="cls-1" d="M482.8,638.28l-3.46,0c-2.46,1.89-3.45,3.62-2,3.43C479.35,640.7,480.81,640.54,482.8,638.28Z" transform="translate(-176.3 -311.47)"/><path class="cls-1" d="M469,659.93c1-1.71,2.46-3.08,4.44-5.33L465.09,662Z" transform="translate(-176.3 -311.47)"/><path class="cls-1" d="M462.63,656.7c-2.46,1.9-8.85,3.46-6.39,5.16C458.69,660,462.14,660,462.63,656.7Z" transform="translate(-176.3 -311.47)"/><polygon class="cls-1" points="273.74 310.08 274.23 310.42 287.79 298.08 273.74 310.08"/><path class="cls-1" d="M397.11,628.44c-1.43,5,8.81-7.13,6.4-1.63,3.63-2.44,2-4.49,5.17-6.52C404.2,622.15,405.54,619.78,397.11,628.44Z" transform="translate(-176.3 -311.47)"/><path class="cls-1" d="M408.68,620.29a27.51,27.51,0,0,0,2.63-1.26A13.26,13.26,0,0,0,408.68,620.29Z" transform="translate(-176.3 -311.47)"/><polygon class="cls-1" points="54.2 3.92 55.72 0 52.09 5.11 54.2 3.92"/><path class="cls-1" d="M218.39,322.44l8.1-8.44-8.32,6.61C218.82,320.53,220.08,320.38,218.39,322.44Z" transform="translate(-176.3 -311.47)"/><path class="cls-1" d="M314.83,559.9l2.15-1.82c2-2.26,1.94-2.72,1.74-3.64Z" transform="translate(-176.3 -311.47)"/><polygon class="cls-1" points="128.88 225.19 128.99 225.65 136.2 217.9 128.88 225.19"/><path class="cls-1" d="M281.84,531.37c.23.88,2.6,0,2.82.87C282.07,532.25,291.31,522.21,281.84,531.37Z" transform="translate(-176.3 -311.47)"/><path class="cls-1" d="M183.34,738.34c-1,.09,4.53,5.2,5.41,6.24C188.48,742.48,181.93,737,183.34,738.34Z" transform="translate(-176.3 -311.47)"/><polygon class="cls-1" points="3.95 405.72 5.97 408.05 1.96 401.39 3.95 405.72"/><path class="cls-1" d="M188.82,708.79c-9.9-8.28-1.6,4.54-6.35,2.83l-2.32-1.82,6.64,8C187.46,714.79,185,707.55,188.82,708.79Z" transform="translate(-176.3 -311.47)"/><path class="cls-1" d="M213,723.9c-3.81-3.26-2.07-4-2.16,0,.49.28.74.47,1.09.7C212.05,724.31,212.31,724.07,213,723.9Z" transform="translate(-176.3 -311.47)"/><path class="cls-1" d="M211.92,724.55c-.63,1.15,3.55,2.39,0,0Z" transform="translate(-176.3 -311.47)"/><path class="cls-1" d="M214,718.41l2,4.33c2.34,1.84,3.85,1.27,5,3.17C220.45,723,218.12,721.16,214,718.41Z" transform="translate(-176.3 -311.47)"/><path class="cls-1" d="M208.49,710.66l.73,2C210.2,713.38,210.67,713.52,208.49,710.66Z" transform="translate(-176.3 -311.47)"/><path class="cls-1" d="M210.75,716.72l-1.53-4.11c-1.64-1.3-4.6-4.23.43,1.61C207.06,711.42,209.39,714.26,210.75,716.72Z" transform="translate(-176.3 -311.47)"/><path class="cls-1" d="M208.63,716.06c-2.63-1.31-4.73-1.71-6.7-6C200.94,713.53,207.66,719.58,208.63,716.06Z" transform="translate(-176.3 -311.47)"/><path class="cls-1" d="M179.84,699l-3.54-1.77,2.28,3.81C177.45,699.11,182.75,701.75,179.84,699Z" transform="translate(-176.3 -311.47)"/><path class="cls-1" d="M226,715.81c-1.86-2-5.54-4.76-8.1-7.15l1.35,3.09C221.05,712.63,223.11,713,226,715.81Z" transform="translate(-176.3 -311.47)"/><path class="cls-1" d="M217.93,708.66l-2-4.62C214.36,704.81,215.73,706.6,217.93,708.66Z" transform="translate(-176.3 -311.47)"/><polygon class="cls-1" points="22.32 388.9 27.15 398.01 22.64 388.4 22.32 388.9"/><polygon class="cls-1" points="54.93 399.64 58.66 404.86 53.23 396.78 54.93 399.64"/><path class="cls-1" d="M233.74,707.05c3.15,4.25,7,5.54,8.7,8.4.23-1.56-2.18-5.51-4.34-9.06C239,708.72,237.77,709.08,233.74,707.05Z" transform="translate(-176.3 -311.47)"/><path class="cls-1" d="M235.09,701.06a51.34,51.34,0,0,0,3,5.33A26,26,0,0,0,235.09,701.06Z" transform="translate(-176.3 -311.47)"/><path class="cls-1" d="M219.09,702.79c1.26,1.07,4.51,3.94,6.53,4.51l-5.94-4.94Z" transform="translate(-176.3 -311.47)"/><path class="cls-1" d="M219.49,702.21l.19.15a11.21,11.21,0,0,1,1.41-.79C220.9,701.66,220.42,701.86,219.49,702.21Z" transform="translate(-176.3 -311.47)"/><path class="cls-1" d="M218.93,702.9a.91.91,0,0,0,.16-.11C218.5,702.31,218.29,702.16,218.93,702.9Z" transform="translate(-176.3 -311.47)"/><path class="cls-1" d="M207,701.89c-2.27-3.81-3.94-8.66-10.11-11.76C200,694.4,203.53,696.16,207,701.89Z" transform="translate(-176.3 -311.47)"/><path class="cls-1" d="M211.51,696.72l-2.63.14c1.46,1.41,3.81,3.25,4.94,5.14Z" transform="translate(-176.3 -311.47)"/><polygon class="cls-1" points="34.16 382.85 35.21 385.26 36.18 385.2 34.16 382.85"/><path class="cls-1" d="M227.65,698.31c-1.77-3-1.31-3.82-1-4.93-1.86-.29-3.25,0-4,.74C224.28,695.94,227,699.35,227.65,698.31Z" transform="translate(-176.3 -311.47)"/><path class="cls-1" d="M223.21,699.73c-.09-.17-.1-.28-.18-.45C222.49,698.9,222.27,698.82,223.21,699.73Z" transform="translate(-176.3 -311.47)"/><path class="cls-1" d="M234,686.19c-.38-.29-.72-.57-1.1-.87l.9,1Z" transform="translate(-176.3 -311.47)"/><path class="cls-1" d="M221.54,693.23c-1.64-.46-.67,1.23.67,3.25a3.08,3.08,0,0,1,.47-2.36C222,693.29,221.46,692.78,221.54,693.23Z" transform="translate(-176.3 -311.47)"/><path class="cls-1" d="M234.58,696.49a35,35,0,0,0-4-2C232.59,695.94,235.88,698,234.58,696.49Z" transform="translate(-176.3 -311.47)"/><path class="cls-1" d="M224.73,700.59a1.81,1.81,0,0,1,.15.33C226.24,701.9,225.65,701.35,224.73,700.59Z" transform="translate(-176.3 -311.47)"/><path class="cls-1" d="M224.73,700.59a36.81,36.81,0,0,0-2.52-4.11,8.14,8.14,0,0,0,.82,2.8C223.49,699.59,224.14,700.11,224.73,700.59Z" transform="translate(-176.3 -311.47)"/><path class="cls-1" d="M201.43,649c4.92,5.16,8,11.4,1.25,7.32,2.43,5.11,19.83,20.88,30.23,29a22.13,22.13,0,0,1-5.78-8.64c-3.22-2.29-9.45-3.44-12.84-9.17-.77-4.41,3.26.32,6.8,2.12-7-5.57-6.79-11.47-16.38-20.36l1.64,4.85C204.89,652.71,203.18,649.83,201.43,649Z" transform="translate(-176.3 -311.47)"/><path class="cls-1" d="M229.78,687.39l.06,1.18c1.52.25,4,1.81,8.77,4.93a25,25,0,0,0-4.8-7.21l-3.47,2Z" transform="translate(-176.3 -311.47)"/><path class="cls-1" d="M227.34,691.1c-5-5.94-6-9.62-12.76-14.75-1.27,2,3.41,5.75,4.8,9.12,1.31-4,2.28,3.82,7.31,5a4.45,4.45,0,0,1,0,2.89,18.27,18.27,0,0,1,3.87,1.14l-.4-.28v0l-.08-.09c-.8-.57-1.25-.95-.72-.68a.26.26,0,0,1-.06-.17c-.74-.79-1.36-1.5-1.94-2.2,1.89.37,1.54,1.31,1.94,2.2.26.27.49.55.78.85l.08.06-.33-5.67C228.52,688.37,228,689.22,227.34,691.1Z" transform="translate(-176.3 -311.47)"/><path class="cls-1" d="M186.48,676.9a11.11,11.11,0,0,1,1.36,1.19C187.34,677.24,187,676.72,186.48,676.9Z" transform="translate(-176.3 -311.47)"/><path class="cls-1" d="M190.89,679.12c.57,1,2.6,3.31,1.4,3.38-2.19-1.1-2.62-2.64-4.45-4.41,1.07,1.83,2.59,5.27,6.45,6.74l-.55-.93c2.95.81,11.17,6.28,11.73,7.22C200.23,686.5,196.44,683.25,190.89,679.12Z" transform="translate(-176.3 -311.47)"/><path class="cls-1" d="M207.8,683.62l-.46-4.91-5.87-3.63,2.9,2.8C202,678,205.77,681.27,207.8,683.62Z" transform="translate(-176.3 -311.47)"/><polygon class="cls-1" points="60.68 377.21 66.16 383.32 59.29 373.84 60.68 377.21"/><polygon class="cls-1" points="62.88 373.65 67.79 378.82 65.53 375.01 62.88 373.65"/><path class="cls-1" d="M343.2,461l-.72-2.11A6.43,6.43,0,0,0,343.2,461Z" transform="translate(-176.3 -311.47)"/><path class="cls-1" d="M338,465.31l2.29,2.66C339.18,466.35,338.29,465.23,338,465.31Z" transform="translate(-176.3 -311.47)"/><path class="cls-1" d="M309.94,614.47c5.6,3.84,13.86,10.19,8.16,4.56l-5.74-5.31C312.67,615.37,311.54,615.25,309.94,614.47Z" transform="translate(-176.3 -311.47)"/><path class="cls-1" d="M326.87,533.25,325,531.81l4.51,6Z" transform="translate(-176.3 -311.47)"/><path class="cls-1" d="M305.18,509.28l4.77,2.4A21.77,21.77,0,0,0,305.18,509.28Z" transform="translate(-176.3 -311.47)"/><path class="cls-1" d="M364.19,429.79l-4.67-6.53C358.32,424.46,361.61,426.86,364.19,429.79Z" transform="translate(-176.3 -311.47)"/><path class="cls-1" d="M266.82,653.76c3,1.36,4.52,1.63,5.36,1.34C268.05,652.88,262.52,648.87,266.82,653.76Z" transform="translate(-176.3 -311.47)"/><path class="cls-1" d="M398.34,523a12.16,12.16,0,0,0-2.7-4A10,10,0,0,0,398.34,523Z" transform="translate(-176.3 -311.47)"/><path class="cls-1" d="M274.54,652.73c-.69-.41-1.11-.55-1.72-.88.31,1.53.45,2.88-.64,3.25C275.26,656.75,277.54,657.39,274.54,652.73Z" transform="translate(-176.3 -311.47)"/><path class="cls-1" d="M466.1,343.81c.31.19.51.24.85.48C466.26,343.5,466.12,343.54,466.1,343.81Z" transform="translate(-176.3 -311.47)"/><path class="cls-1" d="M547.81,375.85c0,.62-.41,1-.77,1.51C547.61,377.57,547.93,377.21,547.81,375.85Z" transform="translate(-176.3 -311.47)"/><path class="cls-1" d="M253.21,676c-.26,1,.51.71,0,0Z" transform="translate(-176.3 -311.47)"/><path class="cls-1" d="M228.5,657a19.14,19.14,0,0,0-2.42-2.94A25.19,25.19,0,0,1,228.5,657Z" transform="translate(-176.3 -311.47)"/><path class="cls-1" d="M246.63,612l.08,0C245.45,611.07,245.69,611.25,246.63,612Z" transform="translate(-176.3 -311.47)"/><path class="cls-1" d="M249.79,674.4a8.9,8.9,0,0,0,2.41.87A10.16,10.16,0,0,0,249.79,674.4Z" transform="translate(-176.3 -311.47)"/><path class="cls-1" d="M252.51,676.9a9.79,9.79,0,0,0-1.07,0C252.28,677.9,252.92,678.41,252.51,676.9Z" transform="translate(-176.3 -311.47)"/><path class="cls-1" d="M253.77,674.86c-.27.44-.85.5-1.57.41a2.93,2.93,0,0,1,1,.74A5.42,5.42,0,0,1,253.77,674.86Z" transform="translate(-176.3 -311.47)"/><path class="cls-1" d="M428,407.54a7.58,7.58,0,0,1,.64.42C427,405,427.11,405.63,428,407.54Z" transform="translate(-176.3 -311.47)"/><path class="cls-1" d="M269.62,540.57c0,.08.15.25.19.34l.29.11Z" transform="translate(-176.3 -311.47)"/><path class="cls-1" d="M267.82,534.22c5.81,7.91,4.43,7.57,2.28,6.8l16.41,15.45Z" transform="translate(-176.3 -311.47)"/><path class="cls-1" d="M353.33,448.33l-6.42-3.58c-6-10.21-1.88-8.64-10.16-14.39,16.58,18-4.49,7.7,12.09,25.64l-4.59-2.73c.47-.12-.48-1.21,0-1.31-10.1-6.56,10.64,14.27,5.62,14.23A10.8,10.8,0,0,1,343.2,461l2.12,6.32c-.92.22-3.7-3-2.79-3.22l-1.77,4.37-.48-.54c2.2,3.2,5.28,8.45,6.53,10.75-3.21-1.79-1.39-2.26-3.7-4.28l2.36,5.93c-5.07-3.92-7.88-9.73-6.06-10.21C321,454,342.22,476,328.92,469l-.51-3.8c-10.61-9-8.41-4.19-16.22-8.7,3.55,2.86,18.71,12.27,21,18.46-1.8-.83-3.1-.81-.71,3.72-6-6.29-5.52-3.8-6.41-2.27L318.25,468c1,3.67,5.11,7.82,7.91,12.32-2.27.59-8.74-5.57-14.27-10.67-3.65.94,11.51,8.78,10.19,13-5-1.3-3.15,3.43-.75,10.66-4.13-1.54-4.63-5.32-7.4-7.23l5.12,7.81c-.45.13-2.3-2-3.24-3.08,1.43,3.56,7.87,8.4,8.41,12.21,8.33,9.57-16.14-10.21-8.18,2.12-2.76-1.89-4.65-5.33-7.88-8.4,3.79,9.46,2.39,7.22,8.94,18.56L310,511.68c7.4,4.88,12.68,14,16.92,21.57,3.39,2.53,6.35,4.76,7.84,5.74l1.77,6.87c-1.61-1.07-4.1-4.17-7-8,.49.85,1,1.68,1.46,2.43-3.85-2.2-8-7.44-11.8-12.7,1.88,1.34,3.86,2.8,5.83,4.25a152.5,152.5,0,0,0-13.81-16.52,7.64,7.64,0,0,1,1.33,3,25,25,0,0,0-3.1-3.6c-.92-.8.58,1.3,2.2,3.81l-9.46-8.71,3.39,3.81L296.64,511c6.59,11.58,17.73,27.25,17.68,34.66-5.61-7.67-10.47-11.26-18.16-19.34,9.21,7.51-.58-6.4,3-6.54-1.87.08-5.34-4-6.36-5.55l4,11.06c-6.25-6.64-5.47-4.21-9-6.06,13.19,12.32,5.76,11.13,8.19,16.47-4.29-4.28-8.24-9.05-5.52-9.65-11.31-7.94,12.26,17.59,2.4,11.09.32-.51,1.19-.06-.78-2.43,2.76,4.81-2.59,4-5.69-.29l.33-.49c-4.26,1.15-8.55,8.08,1.69,19.48C287,552,276,539.8,274,537.42l30.89,41.78c-8.71-9.86-32.18-30.73-35.05-38.29-2-.7-4.31-1.49-2.46,3.2,1.75.9,14.35,12.56,14.57,14-11.88-8.88-6.62-4.49-17.39-11.42,2.64,1.37,16.25,16.89,14.73,17.45-2-2.37-14.27-14.52-15.37-16.43l11.45,17.1c-1.88-3.26-11.84-12.42-16.42-16,3,2.57-2.55,2-1.86,4.09l4.4,2.27c-5.13.72,16.88,23.29,13.18,25.4-2.56-3.34-17.06-19.3-20.35-19.66,6.54,8.11,31.73,38.71,34.69,47l-4.63-3.76,2.71,6.79c-9.66-12.38-29.06-39.3-36-50.33-4.39-2.27-5.19-4.7-6.49-2.68-4.47-3.4-5-6.93-4.7-7.64l-6.42,1.24c8.63,8.5,5.49,11.6,12.68,18.67l-4.52-13.11c8.61,8.48,21.52,27,17.28,28.14-4.06-2.76-14.52-15.93-17.39-18.76,2.55,3.33,2.93,8.25.62,6.39l-3.35-5.77c-4.72-1.76,8.7,13.92-1.22,7.47-1.18.07-12.8-9.28-7.9-4.05,10.7,8.85,40.76,39.2,47.32,47.29-.87-.45-12.56-6.18-18.06-10.34-8.62-6.72-16.48-20-23.87-25.76a45.12,45.12,0,0,1,5.22,7.06c-2.64-1.36-6.89-7.59-7.3-5.1,8.35,9-3.68,2.15,6.58,8.08,1,3.9-3.28-.32-4.57,1.69,6.08,5.15,17.39,20.74,18.42,24.62a66.12,66.12,0,0,0-6.72-6.07c-3.68,2-9.13-.38-11.92,2.21-2.33-1.88-6.15-3.15-9.3-7.47,1.13,1.93,3.69,5.25,3.06,6.29-9.05-6,.71-3-9.46-10.89,4.89,5.19,4.73,9.14,6.67,13.49,8.09,7.48,4.23-1.2,2.3-5.55,10.65,10.83,19.74,24.2,21.85,32,.41,4.9-7.86-6-6.73-4.11-6.08,2.26,15,22.42,3.85,18-8.18-5.52-13.59-13.64-18.8-18.3-.75-4.41,7.12,1.61,8.09.11l-4.74-1.76c-1.68-2.86-2.18-5.8.46-4.46-7.27-5-8.3,5.82-17.18,3.33,1.7,2.88,3.07,6.25,6.27,8.55l.08-2c6.43,4.62,5.66,9.59,9.52,10.9,2.48,5.26,7,12.91,2,11.69l-8.13-7.48c2.31,2.25,5.89,3.42,4.07.49,2.63,4.27-13.48-7.67-4.19,3.47l6.73,4.09c2.53,5.3,9.07,15.31,4.91,14.54,8.45,7-.48-1.28,9.71,6.57-12.22-10.22,4.84-3.86-8.58-14,11.66,9.28,6.57,2.32,17.08,9.68-2.61-2.54-5.47-4.38-2.78-4.53-.68-.82-1.48-1.93-1.94-2.59l.29.1-.38-.23c-.32-.45-.4-.53-.14-.08a26,26,0,0,1-4.62-3.21c-5.17-6.65-2.7-8.72-5-12.56,2.07.38,2.57,3.32,5.77,5.62l-3.39-5.75c5.8,5.64,11.71,7.32,13,12.67l2.07-1.52c4.25,2.17,7,2,5.5-1.3,2.08.41-4.13-8.5-.43-3.26l-.67-6.36,1.44,1.41c3.52-2-3.62-15.22,9.82-8-.49-2.38-1.26-5.12,1.93-5L280,651.5c-.51-2.94,8.54,1.42,4-4.3,14.49,12.16,8.77-2.83,13.24-2.54l-6.31-6.6c1.84-1.07,1.43-4.3.7-8.71l-5.75-5.66c-3.06-6.28,8.06.14,10-2.89,2,2.37.79,2.41-1,1.52,15.7,10.13-3-15.63,9-8.76-1.38-2.76-.19-2.52,1.7-1.52,0,.07,0,.23.13.47a.47.47,0,0,0,.34-.2c1.27.7,2.7,1.56,3.94,2.16a27.19,27.19,0,0,0-3.81-2.33c.41-.62.5-2.11-.14-4.31l6.37,5.89c0-.14.05-.18,0-.35,3,1.55-2.25-3.54-7.2-7.82a30.42,30.42,0,0,0-2.62-4.74c10.37,9.43-1.26-5.36,10,4.53-4.55-5.73.07-7.72-10.18-19.1,1.42,1.4,2.31,1.86,2,2.36,2.08.41,4.15.82,1.92-3l8,7.55-8.42-12.47c5.82,3.71,9,6.06,13.77,13.25-6.32-12-1.18-5.69-7.83-17.24l4.84,5.23c.65-1-4.65-9.16-.05-5.41,11.29,7.92,10.58-7.62,24.12-3.21-15.49-14.2,8.76,4.62-2.33-7.27,3.72,3.3,6.34,4.67,8.55,8.53-.92-5.88,9.15,2.12,1.34-9.39,3.74,3.32,4.52,5.75,6.81,7.63-.54-1-2.21-3.86.1-2s2.53,3.35,3.64,5.28c1.93-3-8.41-14.28-18.18-24.81,6,3.68,6,2.38.36-5.3,3.69,3,7.84,5.8,7.44,8.51,1.36-.35,10.14-.18,2.26-8.58,2.3,1.85,1.82-.56,1.13-1.74,2.45-1.4,3.34-.82,4.53-3.47l-1.84-.84c-8.83-10.76-.53-3.78-.11-6.48l.94,1.07c10.51,3.81-1.77-5,9.67-.07l-6.15-6.06c-12.5-13.74,10.7,4.92,7.86-2.18l-4.15-2.85c-3.26-5.68,20.57,15.27,23.29,15.88,1.36.93,1.4,2.24,1.89,3.43,10.5,5.12-7.43-8.55-7-12.55,4.61,4,10.18,11.73,12.44,11.14,4.14,2.88-9.37-18.44.72-11.88-3.69-3-7.36-6-8.77-9.5.41-2.71,16.48,8.86,7.7-3.23a18.14,18.14,0,0,1,2.81,2.4c-1.43-3.91-.47-8.31-5.27-14.82,21.62,20.59-2.5-17.62,16.38,2.38l2.68-4.57,1.83,2.13c3.61-.91-.07-6.49-3.77-12.07,1.83.84,3.19,3.08,4.14,4.17,7.26.78,6.8-.39.31-13.1l6.42,6.21c-2.77-4.52,14.59,5.47,10.85-5.3a19.08,19.08,0,0,1,2.37,3.26c-3.36-11.23,26.08,9.45,5.25-15.55l-2.95-8.21c-5,1.22-9.16-10.74-14.2-13.42,0-2.6,10,4,9.6,6.73l-1.36-.95c11,12.9,8.17.57,16,9.07,5.87-6.63,18.53-5.66,25.07-10.74l-9.67-9,2.62-1.41c2.65,1.73,7.77,6.85,5.89,7.85,5.88,4.72-1.74-6.92-3.64-9.06,6.57,1.17,9.31,12.31,10.43,11.7l.55-1.86-1.32-.87c-2.68-4.86-6.47-9.12-4.22-10.32,2.94.86,6.12,5.4,6.91,5.35.63.69,1.09.87.95-.36l3.42-1.65L472.73,438c-2.31-4.85,2.87-1.92-6.37-9.41,14.15,11.62,14.35-4.44,19.3-1.32-3.49-7.09-1.77-8.51.87-9.71-2-1.12-10.2-9.42-7.49-10,15.74,18.3,10.31,4.74,23.49,16.18-9.07-7.29,3-6.67-10-16.85,2.78.09,6.21,6.55,11.17,9.7-2.88-10.07,11.75-2.57,13.9-8.83-2.07-2.39-6.07-5.3-8.33-9.61l13,9.57c-.21-1.92-11.59-14.17-2.61-7.5-2-1.77-5.06-4.42-5.17-5.69,18.82,3.64,8.68-25.12,36.8-11.52-5.29-3.48-4.93-4.63-4.2-5.61-1.56-.56-5.26-5.79-8.26-8.85L550.4,374c-7.37-9.4,3.3-4.11-4-12.87l.24,2.55c-7.53-11.32-22.22-20.15-33.62-33.09,8.6,12.84-19.72-12.63-7.78,6.07-3-2-3.22-4.58-6.24-7.23,4.27,6.1,4.46,8,.64,7l-1-1.52c-3.23,5.4-10.06,1.75-18.33,2.75l6.12,5.95c-1.84.14-3.87-1.63-5.81-2.74,7.5,10.66,3.5-2.22,12,9.32-13.14-11.49-7.73,6.73-22-6.91-1.72,1.44,7.16,6.83,5.44,8.26L472,348.07l4.23,5.44c-1.84.16-6.9-4.25-10-7.54.63.15-.11-1.62-.09-2.16-5.65-3.34-2.5,5.21-4.37,4.15l3.81,1c-1.12,7.81-11.37,7.7-8.34,19.68l3.06,2.66c1.74,8.52-5.65-.8-6.94,5.09l-.52-.83c2,3.61,2.4,6,1.09,6.58C451.61,377.79,446,377,443.61,372c1.84,9.18,2.49,6.25,10.28,19.41l-5.08-4.39c3.29,5.17,5.39,7.57,4.76,10.51-2.41-5.57-8.07-6.39-11.56-13.48-13.73-7.19,4.39,16-11.88,2,10.83,15.16,10.26,4.46,12,8.27,4.92,3.66,7.95,11.45,5.5,11.2-1.49.82-18.14-15.4-20.95-12.31.36-.21-.57-1.26-.21-1.48-4.35-2.39,2.11,6.75-4.51,2.45,6.83,8.91-2.25,1.22,7.23,11.86l.55-5c.95,4.2,10.83,17.78,2.71,14.29a43.34,43.34,0,0,1-4.46-7.82c-3.63-2.36.43,3.41-3.3,1-9.5-10.65,1.28-5.43-4.43-15-4.92-3.65,3.82,10.55-5.85-1.55,12.16,15.51-4.69,1,3.46,13.88l-5.69-6.38c.59,1.29,2.67,4.87,1.92,5.27l-6.47-9.11c4.77,8.46-8.86-3-6.95,2.22,3.17-3.33,7.77,6.82,13.44,10.05,3.67,12.22-17.62-14.11-19.46-6.78-.19-1.47,5.86,1.55,7.58,5.35a24.32,24.32,0,0,1-9.09-4.53c-1.85,4.17,6.48,6,8.76,11-8.16-6.62,1.39,4.51,2.32,8.2l-5.94-6.34C391,414.08,409.71,429,402,427l-6.91-10,.49,3.8-6.42-7.52c3.23,7,1.38,6.15-2.26,5.77,4.59,4.08,10.55,11.7,9.19,13.35-4.58-2.78-5.06-6.57-6.4-3.62-3.22-4.42-7.35-9.9-.92-5-1.84-2.16-3.24-4.43-5.05-6.57-5.2-3.26-3.79,1.69-4.53,2.49a3.08,3.08,0,0,1,2.25.68l5.07,11.75a19.17,19.17,0,0,1-5.5-6.42c0,1.29,2.29,4.61,1.86,6.05-4.59-5.38-9.64-10.63-10.58-14.31l2.35,8.55c-2.31-2-7.33-4.67-8.72-6.94-4.52-1.44,5.27,13.85-.7,11.95a8.82,8.82,0,0,1,1.71,3.46c-3.18.8-11-3.75-6.81,5.62L350,432.2c0,3.92,12.84,9.8,12.9,16.31.49,5.08-8.27-7-11.49-8.85,3.25,5.72,10.2,17,1,11.51C351.5,448.78,353.33,449.63,353.33,448.33ZM333.38,475c-.79-1.75-3.75-6.7.12-3.31C339.83,479.38,336.14,476.32,333.38,475Zm-21.55,49.56c-1.65-2.4-.13-1.88,2.74-.08C314.63,525.4,313.92,525.64,311.83,524.55ZM255,664.33a3.72,3.72,0,0,0-.24-.35C258.11,665.41,256.81,664.8,255,664.33Zm-4.73-.63a10.85,10.85,0,0,0,2.45,2.69c-1.4-1.71-1-2.28-.07-2.36C250.87,662.55,249.5,661.7,250.24,663.7ZM474.56,444l-2-1.28C471.84,440,473.11,441.94,474.56,444Z" transform="translate(-176.3 -311.47)"/><path class="cls-1" d="M307.68,512.07c1.14.93,2.3,2.07,3.46,3.22A9.78,9.78,0,0,0,307.68,512.07Z" transform="translate(-176.3 -311.47)"/><path class="cls-1" d="M365.05,431c.07,0,.08,0,.14,0-.32-.41-.66-.82-1-1.21Z" transform="translate(-176.3 -311.47)"/><path class="cls-1" d="M231,579.35a15.65,15.65,0,0,1,4,2.38C233.53,580.19,232.08,579.1,231,579.35Z" transform="translate(-176.3 -311.47)"/><path class="cls-1" d="M249.62,685.08l-.26-2.92c-.34.94-1.9-.18-3.2-.84C247.62,682.74,249.94,684.57,249.62,685.08Z" transform="translate(-176.3 -311.47)"/><path class="cls-1" d="M200.22,658.39c.55,1-.33.49.24,1.45l2.89,2.81C204,661.64,202.29,658.75,200.22,658.39Z" transform="translate(-176.3 -311.47)"/><path class="cls-1" d="M228.08,665.81c-5.24-5.09-4.33-2.5-4.31-.61,0-.08,0-.17.16-.17C230.85,672.57,229.46,669.18,228.08,665.81Z" transform="translate(-176.3 -311.47)"/><path class="cls-1" d="M223.72,665.59c0,.53-.2.95-.73,1C225.76,669.59,223.94,666.83,223.72,665.59Z" transform="translate(-176.3 -311.47)"/><path class="cls-1" d="M251,669.75c-1.76-.9,6.29,6.92,4,5C261,681.9,250,663.88,251,669.75Z" transform="translate(-176.3 -311.47)"/><polygon class="cls-1" points="34.09 338 40.77 344.07 36.18 338.39 34.09 338"/><path class="cls-1" d="M222.42,646.85l-3.24-.29a6.36,6.36,0,0,1,1.76,2.58C222.07,648.44,224.34,648.72,222.42,646.85Z" transform="translate(-176.3 -311.47)"/><path class="cls-1" d="M220.94,649.14c-.6.35-.92.94-.15,2.25A2.62,2.62,0,0,0,220.94,649.14Z" transform="translate(-176.3 -311.47)"/><polygon class="cls-1" points="34.23 334.05 35.99 334.95 37.51 334.37 34.23 334.05"/><path class="cls-1" d="M239.73,632.22l-.18-3.45c-2-2.37-3.77-3.28-3.52-1.8C237.15,628.89,237.38,630.34,239.73,632.22Z" transform="translate(-176.3 -311.47)"/><path class="cls-1" d="M217.45,619.5c1.76.9,3.2,2.3,5.53,4.17l-7.8-8Z" transform="translate(-176.3 -311.47)"/><path class="cls-1" d="M220.39,612.94c-2-2.37-3.86-8.69-5.45-6.14C216.93,609.15,217.1,612.61,220.39,612.94Z" transform="translate(-176.3 -311.47)"/><polygon class="cls-1" points="78.71 287.31 78.39 287.81 91.28 300.86 78.71 287.31"/><path class="cls-1" d="M246.26,546c-5-1.24,7.43,8.56,1.83,6.35,2.57,3.56,4.57,1.8,6.71,5C252.79,552.9,255.22,554.15,246.26,546Z" transform="translate(-176.3 -311.47)"/><path class="cls-1" d="M254.8,557.33a27.72,27.72,0,0,0,1.34,2.58A13.36,13.36,0,0,0,254.8,557.33Z" transform="translate(-176.3 -311.47)"/><polygon class="cls-1" points="382.85 67.36 386.71 69.01 381.74 65.22 382.85 67.36"/><path class="cls-1" d="M552.47,366.52l8.17,8.36-6.35-8.53C554.35,367,554.47,368.27,552.47,366.52Z" transform="translate(-176.3 -311.47)"/><path class="cls-1" d="M313.62,461.32l1.84,2.13c2.29,2,2.75,1.9,3.67,1.67Z" transform="translate(-176.3 -311.47)"/><polygon class="cls-1" points="160.63 139.75 160.17 139.87 168 147 160.63 139.75"/><path class="cls-1" d="M342.21,427.66c-.9.24,0,2.62-.88,2.85C341.31,427.9,351.41,437.08,342.21,427.66Z" transform="translate(-176.3 -311.47)"/></svg>